<svg width="586" height="462" viewBox="0 0 586 462" fill="none" xmlns="http://www.w3.org/2000/svg">
<path d="M319.702 158.364C325.435 158.364 468.314 157.362 508.608 157.362C511.43 157.362 507.863 152.485 506.313 152.14C501.352 151.057 496.16 151.003 491.124 150.482C486.159 150.02 481.292 148.814 476.687 146.903C472.714 145.232 468.754 143.29 464.449 142.567C456.144 141.268 448.881 145.821 441.05 147.762C438.683 148.445 436.199 148.625 433.758 148.291C431.317 147.957 428.973 147.115 426.877 145.821C423.276 143.649 420 141.085 416.236 139.164C409.026 135.61 401.159 133.582 393.128 133.209C385.098 132.835 377.076 134.123 369.567 136.992C366.008 138.369 362.605 140.118 359.414 142.208C355.603 144.711 352.32 147.898 348.496 150.374C340.035 155.786 329.584 154.061 320.352 157.193C319.783 157.41 319.208 158.364 319.702 158.364Z" fill="#EBEBEB"/>
<path d="M311.492 30.4441C319.086 30.4441 446.411 31.2763 454.418 31.026C454.993 31.026 455.298 30.16 454.729 29.8826C449.673 27.3862 443.96 27.853 438.722 26.1143C435.628 25.0318 433.733 23.0631 431.594 20.702C429.825 18.677 427.532 17.1769 424.968 16.3654C422.623 15.663 420.136 15.586 417.752 16.1422C415.174 16.7578 412.926 18.2327 410.463 19.1663C404.371 21.4733 398.401 19.2813 394.028 14.762C390.428 11.0343 386.881 7.50955 381.987 5.50024C379.987 4.59659 377.823 4.11515 375.629 4.08604C373.434 4.05694 371.258 4.4808 369.235 5.33111C364.558 7.4419 361.356 11.6567 356.963 14.2073C351.772 17.2381 345.545 16.5278 339.805 17.4546C334.065 18.3815 329.652 23.212 324.616 25.9993C322.977 27.0546 321.082 27.644 319.134 27.7042C318.01 27.6129 316.894 27.4524 315.79 27.2238C314.057 27.0073 312.406 27.0615 311.235 28.5025C310.944 28.9219 311.005 30.4441 311.492 30.4441Z" fill="#EBEBEB"/>
<path d="M56.6398 96.562C62.163 96.562 155.13 97.1845 160.978 96.9883C161.391 96.9883 161.621 96.3591 161.208 96.1494C157.519 94.3295 153.343 94.7016 149.512 93.4094C147.258 92.6517 145.877 91.1768 144.314 89.4922C143.017 88.0214 141.348 86.9275 139.481 86.326C137.768 85.8129 135.95 85.757 134.208 86.1637C132.39 86.7775 130.611 87.5027 128.881 88.3354C124.421 90.0132 120.082 88.4233 116.894 85.0812C114.261 82.3751 111.675 79.7907 108.095 78.3159C106.637 77.6535 105.057 77.2995 103.456 77.2763C101.854 77.253 100.265 77.5608 98.788 78.1805C95.4037 79.7231 93.0279 82.8351 89.8331 84.6888C86.0359 86.9146 81.4874 86.3802 77.3044 87.0499C73.1214 87.7197 69.8589 91.2512 66.2038 93.2876C65.004 94.0586 63.6159 94.4867 62.19 94.5257C61.372 94.4595 60.5585 94.3465 59.7533 94.1874C59.167 94.0239 58.5469 94.0244 57.9609 94.1891C57.3748 94.3537 56.8452 94.6761 56.43 95.121C56.281 95.4796 56.281 96.562 56.6398 96.562Z" fill="#EBEBEB"/>
<path d="M402.144 98.984C407.674 98.984 500.648 99.5997 506.482 99.4035C506.909 99.4035 507.159 98.7743 506.712 98.5714C503.037 96.7447 498.861 97.1168 495.03 95.8246C492.776 95.0669 491.395 93.5921 489.831 91.9142C488.537 90.4375 486.864 89.3426 484.992 88.748C483.281 88.2349 481.465 88.1789 479.726 88.5857C477.906 89.1943 476.127 89.9174 474.399 90.7506C469.932 92.4352 465.6 90.8386 462.398 87.4965C459.772 84.7903 457.18 82.2059 453.599 80.7311C452.139 80.0684 450.558 79.7149 448.956 79.6928C447.353 79.6707 445.763 79.9804 444.285 80.6026C440.901 82.1383 438.532 85.2504 435.33 87.1041C431.54 89.2758 426.992 88.7954 422.795 89.4719C418.598 90.1485 415.383 93.6665 411.708 95.7029C410.522 96.4978 409.141 96.9519 407.714 97.0153C406.897 96.9411 406.084 96.826 405.278 96.6703C404.691 96.5083 404.071 96.5104 403.485 96.6762C402.899 96.842 402.369 97.1652 401.954 97.6107C401.745 97.8881 401.785 98.984 402.144 98.984Z" fill="#EBEBEB"/>
<path d="M147.698 189.43C153.235 189.43 246.202 190.053 252.05 189.856C252.463 189.856 252.693 189.227 252.28 189.018C248.591 187.198 244.415 187.57 240.584 186.278C238.33 185.52 236.949 184.045 235.392 182.36C234.092 180.891 232.42 179.797 230.553 179.194C228.839 178.681 227.022 178.625 225.28 179.032C223.461 179.646 221.682 180.371 219.953 181.204C215.499 182.881 211.154 181.291 208.02 177.949C205.387 175.243 202.808 172.659 199.221 171.184C197.76 170.521 196.178 170.168 194.574 170.145C192.97 170.123 191.379 170.433 189.9 171.055C186.516 172.591 184.154 175.703 180.952 177.557C177.155 179.729 172.613 179.248 168.424 179.918C164.234 180.588 160.978 184.119 157.33 186.156C156.129 186.925 154.742 187.353 153.316 187.394C152.496 187.321 151.68 187.203 150.873 187.042C150.286 186.883 149.667 186.887 149.082 187.054C148.498 187.221 147.97 187.544 147.556 187.989C147.299 188.341 147.4 189.43 147.698 189.43Z" fill="#EBEBEB"/>
<path d="M106.788 137.202C106.897 137.513 253.329 137.202 251.474 137.202C250.642 137.202 252.754 135.943 251.935 135.531C247.197 133.169 241.951 133.102 236.746 132.621C233.674 132.492 230.658 131.756 227.872 130.457C225.117 129.015 223.391 126.499 221.442 124.192C218.423 120.619 214.543 117.875 210.168 116.218C205.793 114.561 201.068 114.045 196.439 114.72C186.022 116.357 177.812 124.28 167.388 125.734C161.12 126.614 155.204 124.199 149.065 123.339C144.332 122.684 139.512 123.558 135.311 125.836C132.062 127.473 128.956 128.846 125.226 129.09C122.363 129.279 119.486 128.955 116.61 128.928C111.926 129.043 107.445 130.862 104.007 134.042C103.485 134.455 102.01 137.202 106.788 137.202Z" fill="#EBEBEB"/>
<path d="M358.832 147.979H207.147V359.525H358.832V147.979Z" fill="#8A70D6"/>
<path opacity="0.7" d="M358.832 147.979H207.147V359.525H358.832V147.979Z" fill="white"/>
<path d="M337.138 287.893H228.84V293.346H337.138V287.893Z" fill="#8A70D6"/>
<path d="M316.135 293.346H249.904V355.202H316.135V293.346Z" fill="#313031"/>
<path opacity="0.5" d="M311.681 297.913H254.365V355.202H311.681V297.913Z" fill="#313031"/>
<g opacity="0.1">
<path d="M311.681 321.815V332.45L288.932 355.202H278.292L311.681 321.815Z" fill="white"/>
<path d="M269.33 297.913L254.372 312.864V302.229L258.676 297.913H269.33Z" fill="white"/>
<path d="M301.305 297.913L254.372 344.837V339.52L295.992 297.913H301.305Z" fill="white"/>
<path d="M311.681 337.984V343.308L299.775 355.202H294.455L311.681 337.984Z" fill="white"/>
<path d="M311.681 303.23V304.198L260.673 355.202H259.678L311.681 303.23Z" fill="white"/>
<path d="M275.537 297.913L254.372 319.061V318.074L274.549 297.913H275.537Z" fill="white"/>
<path d="M293.589 297.913L254.372 337.105V336.11L292.587 297.913H293.589Z" fill="white"/>
</g>
<path d="M284.878 297.913H281.189V355.202H284.878V297.913Z" fill="#313031"/>
<path d="M254.459 171.049H230.81V207.683H254.459V171.049Z" fill="#313031"/>
<path opacity="0.5" d="M252.03 173.735H233.253V205.004H252.03V173.735Z" fill="#313031"/>
<path d="M257.844 207.683H227.426V212.953H257.844V207.683Z" fill="#8A70D6"/>
<g opacity="0.1">
<path d="M252.03 173.735V177.598L233.24 196.371V189.227L248.754 173.735H252.03Z" fill="white"/>
<path d="M252.03 196.919V200.485L247.508 205.004H243.934L252.03 196.919Z" fill="white"/>
<path d="M239.569 173.735L233.24 180.06V176.481L235.988 173.735H239.569Z" fill="white"/>
<path d="M252.03 191.325V192.475L239.481 205.004H238.33L252.03 191.325Z" fill="white"/>
</g>
<path d="M254.459 192.123H230.81V194.802H254.459V192.123Z" fill="#313031"/>
<path d="M294.814 171.049H271.164V207.683H294.814V171.049Z" fill="#313031"/>
<path opacity="0.5" d="M292.384 173.735H273.608V205.004H292.384V173.735Z" fill="#313031"/>
<path d="M298.198 207.683H267.78V212.953H298.198V207.683Z" fill="#8A70D6"/>
<g opacity="0.1">
<path d="M292.384 173.735V177.598L273.594 196.371V189.227L289.108 173.735H292.384Z" fill="white"/>
<path d="M292.384 196.919V200.485L287.856 205.004H284.275L292.384 196.919Z" fill="white"/>
<path d="M279.916 173.735L273.594 180.06V176.481L276.336 173.735H279.916Z" fill="white"/>
<path d="M292.384 191.325V192.475L279.828 205.004H278.684L292.384 191.325Z" fill="white"/>
</g>
<path d="M294.814 192.123H271.164V194.802H294.814V192.123Z" fill="#313031"/>
<path d="M335.168 171.049H311.519V207.683H335.168V171.049Z" fill="#313031"/>
<path opacity="0.5" d="M332.732 173.735H313.956V205.004H332.732V173.735Z" fill="#313031"/>
<path d="M338.553 207.683H308.135V212.953H338.553V207.683Z" fill="#8A70D6"/>
<g opacity="0.1">
<path d="M332.732 173.735V177.598L313.942 196.371V189.227L329.456 173.735H332.732Z" fill="white"/>
<path d="M332.732 196.919V200.485L328.21 205.004H324.643L332.732 196.919Z" fill="white"/>
<path d="M320.271 173.735L313.942 180.06V176.481L316.69 173.735H320.271Z" fill="white"/>
<path d="M332.732 191.325V192.475L320.183 205.004H319.032L332.732 191.325Z" fill="white"/>
</g>
<path d="M335.168 192.123H311.519V194.802H335.168V192.123Z" fill="#313031"/>
<path d="M254.459 226.376H230.81V263.01H254.459V226.376Z" fill="#313031"/>
<path opacity="0.5" d="M252.03 229.055H233.253V260.324H252.03V229.055Z" fill="#313031"/>
<path d="M257.844 263.01H227.426V268.281H257.844V263.01Z" fill="#8A70D6"/>
<g opacity="0.1">
<path d="M252.03 229.055V232.925L233.24 251.692V244.554L248.754 229.055H252.03Z" fill="white"/>
<path d="M252.03 252.233V255.812L247.508 260.331H243.934L252.03 252.233Z" fill="white"/>
<path d="M239.569 229.055L233.24 235.374V231.808L235.988 229.055H239.569Z" fill="white"/>
<path d="M252.03 246.638V247.788L239.481 260.331H238.33L252.03 246.638Z" fill="white"/>
</g>
<path d="M254.459 247.45H230.81V250.129H254.459V247.45Z" fill="#313031"/>
<path d="M294.814 226.376H271.164V263.01H294.814V226.376Z" fill="#313031"/>
<path opacity="0.5" d="M292.384 229.055H273.608V260.324H292.384V229.055Z" fill="#313031"/>
<path d="M298.198 263.01H267.78V268.281H298.198V263.01Z" fill="#8A70D6"/>
<g opacity="0.1">
<path d="M292.384 229.055V232.925L273.594 251.692V244.554L289.108 229.055H292.384Z" fill="white"/>
<path d="M292.384 252.233V255.812L287.856 260.331H284.275L292.384 252.233Z" fill="white"/>
<path d="M279.916 229.055L273.594 235.374V231.808L276.336 229.055H279.916Z" fill="white"/>
<path d="M292.384 246.638V247.788L279.828 260.331H278.684L292.384 246.638Z" fill="white"/>
</g>
<path d="M294.814 247.45H271.164V250.129H294.814V247.45Z" fill="#313031"/>
<path d="M335.168 226.376H311.519V263.01H335.168V226.376Z" fill="#313031"/>
<path opacity="0.5" d="M332.732 229.055H313.956V260.324H332.732V229.055Z" fill="#313031"/>
<path d="M338.553 263.01H308.135V268.281H338.553V263.01Z" fill="#8A70D6"/>
<g opacity="0.1">
<path d="M332.732 229.055V232.925L313.942 251.692V244.554L329.456 229.055H332.732Z" fill="white"/>
<path d="M332.732 252.233V255.812L328.21 260.331H324.643L332.732 252.233Z" fill="white"/>
<path d="M320.271 229.055L313.942 235.374V231.808L316.69 229.055H320.271Z" fill="white"/>
<path d="M332.732 246.638V247.788L320.183 260.331H319.032L332.732 246.638Z" fill="white"/>
</g>
<path d="M335.168 247.45H311.519V250.129H335.168V247.45Z" fill="#313031"/>
<path opacity="0.5" d="M358.832 276.92H207.147V278.774L358.832 277.84V276.92Z" fill="#8A70D6"/>
<path d="M358.832 274.342H207.147V276.92H358.832V274.342Z" fill="white"/>
<path opacity="0.5" d="M358.832 219.915H207.147V221.775L358.832 220.849V219.915Z" fill="#8A70D6"/>
<path d="M358.832 217.331H207.147V219.908H358.832V217.331Z" fill="white"/>
<path opacity="0.5" d="M358.832 162.917H207.147V164.784L358.832 163.85V162.917Z" fill="#8A70D6"/>
<path d="M358.832 160.339H207.147V162.917H358.832V160.339Z" fill="white"/>
<path d="M207.147 147.979H200.635V359.525H207.147V147.979Z" fill="#8A70D6"/>
<path opacity="0.8" d="M207.147 147.979H200.635V359.525H207.147V147.979Z" fill="white"/>
<path d="M365.343 147.979H358.832V359.525H365.343V147.979Z" fill="#8A70D6"/>
<path opacity="0.8" d="M365.343 147.979H358.832V359.525H365.343V147.979Z" fill="white"/>
<path d="M332.549 293.346H326.951V355.202H332.549V293.346Z" fill="#8A70D6"/>
<path opacity="0.9" d="M332.549 293.346H326.951V355.202H332.549V293.346Z" fill="white"/>
<path d="M237.078 293.346H231.48V355.202H237.078V293.346Z" fill="#8A70D6"/>
<path opacity="0.9" d="M237.078 293.346H231.48V355.202H237.078V293.346Z" fill="white"/>
<path d="M343.44 357.38H222.525V359.559H343.44V357.38Z" fill="#EBEBEB"/>
<path d="M337.551 355.202H228.427V357.38H337.551V355.202Z" fill="#EBEBEB"/>
<path d="M337.551 356.826L228.427 356.284V357.38H337.551V356.826Z" fill="#DBDBDB"/>
<path d="M200.649 206.587H65.6421V359.539H200.649V206.587Z" fill="#8A70D6"/>
<path opacity="0.7" d="M200.649 206.587H65.6421V359.539H200.649V206.587Z" fill="white"/>
<path opacity="0.5" d="M200.649 336.408H65.6421V359.532H200.649V336.408Z" fill="#8A70D6"/>
<path d="M104.609 226.112H80.9595V262.746H104.609V226.112Z" fill="#313031"/>
<path opacity="0.5" d="M102.172 228.791H83.3962V260.061H102.172V228.791Z" fill="#313031"/>
<path d="M108 262.713H77.6022V267.976H108V262.713Z" fill="#8A70D6"/>
<g opacity="0.1">
<path d="M102.172 228.805V232.661L83.3962 251.442V244.297L98.9031 228.805H102.172Z" fill="white"/>
<path d="M102.172 251.983V255.548L97.6509 260.074H94.0838L102.172 251.983Z" fill="white"/>
<path d="M89.7248 228.805L83.3962 235.124V231.545L86.1307 228.805H89.7248Z" fill="white"/>
<path d="M102.172 246.388V247.531L89.6368 260.074H88.4861L102.172 246.388Z" fill="white"/>
</g>
<path d="M104.609 247.193H80.9595V249.872H104.609V247.193Z" fill="#313031"/>
<path d="M144.957 226.112H121.307V262.746H144.957V226.112Z" fill="#313031"/>
<path opacity="0.5" d="M142.527 228.791H123.751V260.061H142.527V228.791Z" fill="#313031"/>
<path d="M148.327 262.713H117.93V267.976H148.327V262.713Z" fill="#8A70D6"/>
<g opacity="0.1">
<path d="M142.527 228.805V232.661L123.751 251.442V244.297L139.251 228.805H142.527Z" fill="white"/>
<path d="M142.527 251.983V255.548L138.005 260.074H134.438L142.527 251.983Z" fill="white"/>
<path d="M130.073 228.805L123.751 235.124V231.545L126.485 228.805H130.073Z" fill="white"/>
<path d="M142.527 246.388V247.531L129.978 260.074H128.841L142.527 246.388Z" fill="white"/>
</g>
<path d="M144.957 247.193H121.307V249.872H144.957V247.193Z" fill="#313031"/>
<path d="M185.311 226.112H161.662V262.746H185.311V226.112Z" fill="#313031"/>
<path opacity="0.5" d="M182.881 228.791H164.105V260.061H182.881V228.791Z" fill="#313031"/>
<path d="M188.662 262.713H158.264V267.976H188.662V262.713Z" fill="#8A70D6"/>
<g opacity="0.1">
<path d="M182.881 228.805V232.661L164.098 251.442V244.297L179.605 228.805H182.881Z" fill="white"/>
<path d="M182.881 251.983V255.548L178.353 260.074H174.786L182.881 251.983Z" fill="white"/>
<path d="M170.427 228.805L164.098 235.124V231.545L166.846 228.805H170.427Z" fill="white"/>
<path d="M182.881 246.388V247.531L170.339 260.074H169.188L182.881 246.388Z" fill="white"/>
</g>
<path d="M185.311 247.193H161.662V249.872H185.311V247.193Z" fill="#313031"/>
<path d="M104.609 281.432H80.9595V318.067H104.609V281.432Z" fill="#313031"/>
<path opacity="0.5" d="M102.172 284.118H83.3962V315.388H102.172V284.118Z" fill="#313031"/>
<path d="M108 318.013H77.6022V323.276H108V318.013Z" fill="#8A70D6"/>
<g opacity="0.1">
<path d="M102.172 284.118V287.988L83.3962 306.755V299.624L98.9031 284.118H102.172Z" fill="white"/>
<path d="M102.172 307.303V310.875L97.6509 315.388H94.0838L102.172 307.303Z" fill="white"/>
<path d="M89.7248 284.118L83.3962 290.444V286.872L86.1307 284.118H89.7248Z" fill="white"/>
<path d="M102.172 301.701V302.852L89.6368 315.388H88.4861L102.172 301.701Z" fill="white"/>
</g>
<path d="M104.609 302.507H80.9595V305.186H104.609V302.507Z" fill="#313031"/>
<path d="M144.957 281.432H121.307V318.067H144.957V281.432Z" fill="#313031"/>
<path opacity="0.5" d="M142.527 284.118H123.751V315.388H142.527V284.118Z" fill="#313031"/>
<path d="M148.341 318.074H117.923V323.344H148.341V318.074Z" fill="#8A70D6"/>
<g opacity="0.1">
<path d="M142.527 284.118V287.988L123.751 306.755V299.624L139.251 284.118H142.527Z" fill="white"/>
<path d="M142.527 307.303V310.875L138.005 315.388H134.438L142.527 307.303Z" fill="white"/>
<path d="M130.073 284.118L123.751 290.444V286.872L126.485 284.118H130.073Z" fill="white"/>
<path d="M142.527 301.701V302.852L129.978 315.388H128.841L142.527 301.701Z" fill="white"/>
</g>
<path d="M144.957 302.507H121.307V305.186H144.957V302.507Z" fill="#313031"/>
<path d="M185.311 281.432H161.662V318.067H185.311V281.432Z" fill="#313031"/>
<path opacity="0.5" d="M182.881 284.118H164.105V315.388H182.881V284.118Z" fill="#313031"/>
<path d="M188.696 318.074H158.277V323.344H188.696V318.074Z" fill="#8A70D6"/>
<g opacity="0.1">
<path d="M182.881 284.118V287.988L164.098 306.755V299.624L179.605 284.118H182.881Z" fill="white"/>
<path d="M182.881 307.303V310.875L178.353 315.388H174.786L182.881 307.303Z" fill="white"/>
<path d="M170.427 284.118L164.098 290.444V286.872L166.846 284.118H170.427Z" fill="white"/>
<path d="M182.881 301.701V302.852L170.339 315.388H169.188L182.881 301.701Z" fill="white"/>
</g>
<path d="M185.311 302.507H161.662V305.186H185.311V302.507Z" fill="#313031"/>
<path d="M200.602 198.969H61.0732V206.587H200.602V198.969Z" fill="#8A70D6"/>
<path opacity="0.5" d="M200.635 275.195H65.6421V277.048L200.635 276.115V275.195Z" fill="#8A70D6"/>
<path d="M200.649 272.617H65.6421V275.195H200.649V272.617Z" fill="white"/>
<path opacity="0.5" d="M190.733 206.587H200.635V359.539H197.454L190.733 206.587Z" fill="#8A70D6"/>
<path d="M500.336 206.587H365.329V359.539H500.336V206.587Z" fill="#8A70D6"/>
<path opacity="0.7" d="M500.336 206.587H365.329V359.539H500.336V206.587Z" fill="white"/>
<path d="M404.303 226.112H380.654V262.746H404.303V226.112Z" fill="#313031"/>
<path opacity="0.5" d="M401.873 228.791H383.097V260.061H401.873V228.791Z" fill="#313031"/>
<path d="M407.687 262.746H377.269V268.017H407.687V262.746Z" fill="#8A70D6"/>
<g opacity="0.1">
<path d="M401.873 228.805V232.661L383.097 251.442V244.297L398.597 228.805H401.873Z" fill="white"/>
<path d="M401.873 251.983V255.548L397.352 260.074H393.778L401.873 251.983Z" fill="white"/>
<path d="M389.419 228.805L383.097 235.124V231.545L385.838 228.805H389.419Z" fill="white"/>
<path d="M401.873 246.388V247.531L389.331 260.074H388.18L401.873 246.388Z" fill="white"/>
</g>
<path d="M404.303 247.193H380.654V249.872H404.303V247.193Z" fill="#313031"/>
<path d="M444.658 226.112H421.008V262.746H444.658V226.112Z" fill="#313031"/>
<path opacity="0.5" d="M442.221 228.791H423.445V260.061H442.221V228.791Z" fill="#313031"/>
<path d="M448.042 262.746H417.624V268.017H448.042V262.746Z" fill="#8A70D6"/>
<g opacity="0.1">
<path d="M442.228 228.805V232.661L423.452 251.442V244.297L438.945 228.805H442.228Z" fill="white"/>
<path d="M442.228 251.983V255.548L437.7 260.074H434.133L442.228 251.983Z" fill="white"/>
<path d="M429.774 228.805L423.452 235.124V231.545L426.193 228.805H429.774Z" fill="white"/>
<path d="M442.228 246.388V247.531L429.686 260.074H428.535L442.228 246.388Z" fill="white"/>
</g>
<path d="M444.658 247.193H421.008V249.872H444.658V247.193Z" fill="#313031"/>
<path d="M485.005 226.112H461.356V262.746H485.005V226.112Z" fill="#313031"/>
<path opacity="0.5" d="M482.576 228.791H463.799V260.061H482.576V228.791Z" fill="#313031"/>
<path d="M488.39 262.746H457.972V268.017H488.39V262.746Z" fill="#8A70D6"/>
<g opacity="0.1">
<path d="M482.575 228.805V232.661L463.799 251.442V244.297L479.299 228.805H482.575Z" fill="white"/>
<path d="M482.576 251.983V255.548L478.054 260.074H474.487L482.576 251.983Z" fill="white"/>
<path d="M470.121 228.805L463.799 235.124V231.545L466.541 228.805H470.121Z" fill="white"/>
<path d="M482.576 246.388V247.531L470.033 260.074H468.889L482.576 246.388Z" fill="white"/>
</g>
<path d="M485.005 247.193H461.356V249.872H485.005V247.193Z" fill="#313031"/>
<path d="M404.303 281.432H380.654V318.067H404.303V281.432Z" fill="#313031"/>
<path opacity="0.5" d="M401.873 284.118H383.097V315.388H401.873V284.118Z" fill="#313031"/>
<path d="M407.687 318.074H377.269V323.344H407.687V318.074Z" fill="#8A70D6"/>
<g opacity="0.1">
<path d="M401.873 284.118V287.988L383.097 306.755V299.624L398.597 284.118H401.873Z" fill="white"/>
<path d="M401.873 307.303V310.875L397.352 315.388H393.778L401.873 307.303Z" fill="white"/>
<path d="M389.419 284.118L383.097 290.444V286.872L385.838 284.118H389.419Z" fill="white"/>
<path d="M401.873 301.701V302.852L389.331 315.388H388.18L401.873 301.701Z" fill="white"/>
</g>
<path d="M404.303 302.507H380.654V305.186H404.303V302.507Z" fill="#313031"/>
<path d="M444.658 281.432H421.008V318.067H444.658V281.432Z" fill="#313031"/>
<path opacity="0.5" d="M442.221 284.118H423.445V315.388H442.221V284.118Z" fill="#313031"/>
<path d="M448.042 318.074H417.624V323.344H448.042V318.074Z" fill="#8A70D6"/>
<g opacity="0.1">
<path d="M442.228 284.118V287.988L423.452 306.755V299.624L438.945 284.118H442.228Z" fill="white"/>
<path d="M442.228 307.303V310.875L437.7 315.388H434.133L442.228 307.303Z" fill="white"/>
<path d="M429.774 284.118L423.452 290.444V286.872L426.193 284.118H429.774Z" fill="white"/>
<path d="M442.228 301.701V302.852L429.686 315.388H428.535L442.228 301.701Z" fill="white"/>
</g>
<path d="M444.658 302.507H421.008V305.186H444.658V302.507Z" fill="#313031"/>
<path d="M485.005 281.432H461.356V318.067H485.005V281.432Z" fill="#313031"/>
<path opacity="0.5" d="M482.576 284.118H463.799V315.388H482.576V284.118Z" fill="#313031"/>
<path d="M488.39 318.074H457.972V323.344H488.39V318.074Z" fill="#8A70D6"/>
<g opacity="0.1">
<path d="M482.575 284.118V287.988L463.799 306.755V299.624L479.299 284.118H482.575Z" fill="white"/>
<path d="M482.576 307.303V310.875L478.054 315.388H474.487L482.576 307.303Z" fill="white"/>
<path d="M470.121 284.118L463.799 290.444V286.872L466.541 284.118H470.121Z" fill="white"/>
<path d="M482.576 301.701V302.852L470.033 315.388H468.889L482.576 301.701Z" fill="white"/>
</g>
<path d="M485.005 302.507H461.356V305.186H485.005V302.507Z" fill="#313031"/>
<path d="M504.939 198.969H365.336V206.594H504.939V198.969Z" fill="#8A70D6"/>
<path opacity="0.5" d="M500.343 336.408H365.336V359.532H500.343V336.408Z" fill="#8A70D6"/>
<path opacity="0.5" d="M500.336 275.195H365.336V277.048L500.336 276.115V275.195Z" fill="#8A70D6"/>
<path d="M500.343 272.617H365.336V275.195H500.343V272.617Z" fill="white"/>
<path opacity="0.5" d="M375.245 206.587H365.336V359.539H368.517L375.245 206.587Z" fill="#8A70D6"/>
<path d="M346.276 126.783H219.703V151.429H346.276V126.783Z" fill="#8A70D6"/>
<path d="M346.269 148.466H219.696V149.007H346.269V148.466Z" fill="white"/>
<path d="M346.269 129.198H219.696V129.739H346.269V129.198Z" fill="white"/>
<path d="M232.164 143.541V134.976C232.182 134.774 232.275 134.587 232.425 134.45C232.575 134.314 232.77 134.238 232.972 134.238C233.175 134.238 233.37 134.314 233.52 134.45C233.67 134.587 233.763 134.774 233.781 134.976V138.467H237.551V134.976C237.551 134.872 237.57 134.769 237.609 134.672C237.648 134.576 237.706 134.488 237.779 134.414C237.852 134.34 237.938 134.281 238.034 134.24C238.13 134.2 238.233 134.178 238.337 134.177V134.177C238.442 134.177 238.547 134.197 238.645 134.236C238.743 134.276 238.833 134.334 238.908 134.408C238.984 134.483 239.044 134.571 239.085 134.668C239.126 134.766 239.148 134.87 239.149 134.976V143.561C239.15 143.666 239.13 143.771 239.09 143.869C239.05 143.966 238.992 144.055 238.917 144.13C238.843 144.205 238.755 144.264 238.657 144.305C238.56 144.345 238.456 144.366 238.35 144.366V144.366C238.246 144.368 238.143 144.349 238.046 144.311C237.949 144.273 237.861 144.216 237.786 144.144C237.711 144.072 237.652 143.985 237.61 143.89C237.569 143.795 237.546 143.692 237.545 143.588V140.043H233.775V143.534C233.749 143.749 233.639 143.945 233.469 144.08C233.299 144.214 233.083 144.276 232.868 144.251C232.69 144.23 232.525 144.151 232.398 144.026C232.27 143.901 232.188 143.738 232.164 143.561V143.541Z" fill="white"/>
<path d="M241.843 134.976C241.842 134.872 241.861 134.769 241.9 134.672C241.939 134.576 241.997 134.488 242.07 134.414C242.143 134.34 242.23 134.281 242.325 134.24C242.421 134.2 242.524 134.178 242.628 134.177V134.177C242.734 134.177 242.839 134.197 242.937 134.236C243.035 134.276 243.124 134.334 243.199 134.408C243.275 134.483 243.335 134.571 243.376 134.668C243.418 134.766 243.439 134.87 243.44 134.976V143.561C243.438 143.775 243.352 143.98 243.2 144.131C243.048 144.281 242.842 144.366 242.628 144.366C242.524 144.368 242.421 144.349 242.324 144.311C242.227 144.273 242.139 144.216 242.064 144.144C241.989 144.072 241.929 143.985 241.888 143.89C241.846 143.795 241.824 143.692 241.822 143.588V134.976H241.843Z" fill="white"/>
<path d="M245.701 139.116C245.708 138.421 245.852 137.733 246.125 137.093C246.398 136.453 246.794 135.873 247.291 135.386C247.789 134.899 248.377 134.515 249.023 134.255C249.668 133.996 250.359 133.866 251.055 133.873H251.123C252.32 133.852 253.491 134.233 254.446 134.955C254.549 135.009 254.639 135.084 254.711 135.174C254.784 135.265 254.837 135.369 254.867 135.481C254.897 135.593 254.904 135.71 254.886 135.824C254.869 135.939 254.828 136.049 254.766 136.147C254.704 136.244 254.623 136.329 254.527 136.393C254.431 136.458 254.322 136.503 254.208 136.524C254.094 136.545 253.977 136.542 253.864 136.515C253.751 136.489 253.645 136.439 253.552 136.369C253.505 136.342 253.462 136.307 253.424 136.268C252.763 135.763 251.955 135.488 251.123 135.483C250.634 135.479 250.15 135.574 249.699 135.761C249.247 135.948 248.839 136.224 248.496 136.572C248.166 136.88 247.9 137.25 247.713 137.661C247.525 138.072 247.421 138.515 247.405 138.966C247.389 139.417 247.463 139.867 247.621 140.29C247.779 140.712 248.019 141.1 248.327 141.43L248.496 141.599C248.839 141.947 249.247 142.223 249.699 142.41C250.15 142.598 250.634 142.692 251.123 142.688C251.825 142.679 252.513 142.488 253.119 142.134V140.104H251.035C250.815 140.104 250.604 140.017 250.448 139.863C250.292 139.708 250.204 139.498 250.202 139.279C250.202 139.06 250.289 138.85 250.444 138.695C250.599 138.54 250.809 138.453 251.028 138.453H253.932C254.15 138.45 254.361 138.532 254.52 138.683C254.678 138.833 254.771 139.04 254.778 139.258V142.533C254.784 142.616 254.784 142.7 254.778 142.783V142.857C254.731 143.003 254.632 143.126 254.5 143.202C253.714 143.797 252.78 144.166 251.8 144.27C250.819 144.373 249.829 144.207 248.936 143.789C248.043 143.372 247.281 142.718 246.733 141.899C246.184 141.081 245.869 140.128 245.823 139.143L245.701 139.116Z" fill="white"/>
<path d="M257.39 143.541V134.976C257.389 134.872 257.407 134.769 257.446 134.673C257.484 134.577 257.541 134.489 257.613 134.414C257.685 134.34 257.772 134.281 257.867 134.24C257.963 134.2 258.065 134.178 258.169 134.177V134.177C258.274 134.177 258.379 134.197 258.477 134.236C258.576 134.276 258.665 134.334 258.74 134.408C258.816 134.483 258.876 134.571 258.917 134.668C258.958 134.766 258.98 134.87 258.981 134.976V138.467H262.751V134.976C262.776 134.78 262.872 134.601 263.02 134.47C263.169 134.34 263.359 134.269 263.557 134.269C263.754 134.269 263.944 134.34 264.093 134.47C264.241 134.601 264.337 134.78 264.362 134.976V143.561C264.337 143.757 264.241 143.936 264.093 144.066C263.944 144.196 263.754 144.268 263.557 144.268C263.359 144.268 263.169 144.196 263.02 144.066C262.872 143.936 262.776 143.757 262.751 143.561V140.043H258.981V143.534C258.982 143.639 258.962 143.744 258.922 143.842C258.882 143.939 258.824 144.028 258.749 144.103C258.675 144.178 258.587 144.237 258.489 144.278C258.392 144.318 258.288 144.339 258.182 144.339V144.339C257.973 144.341 257.772 144.26 257.623 144.114C257.473 143.969 257.387 143.77 257.384 143.561L257.39 143.541Z" fill="white"/>
<path d="M271.76 141.809C271.891 141.652 272.078 141.554 272.281 141.535C272.484 141.516 272.686 141.578 272.843 141.707C273.63 142.362 274.609 142.744 275.632 142.797C276.278 142.802 276.912 142.616 277.452 142.262C277.636 142.145 277.788 141.985 277.896 141.797C278.005 141.609 278.066 141.397 278.075 141.18C278.074 141.015 278.03 140.854 277.947 140.713C277.834 140.538 277.683 140.39 277.507 140.28C276.891 139.932 276.216 139.703 275.517 139.603V139.603C274.867 139.493 274.235 139.3 273.635 139.028C273.092 138.8 272.623 138.425 272.281 137.946C272.059 137.586 271.941 137.171 271.943 136.748C271.953 136.321 272.064 135.901 272.268 135.525C272.471 135.149 272.761 134.826 273.114 134.583C273.851 134.069 274.732 133.799 275.632 133.812C276.785 133.874 277.893 134.279 278.813 134.976C278.894 135.03 278.963 135.099 279.016 135.179C279.07 135.26 279.107 135.35 279.125 135.446C279.143 135.541 279.142 135.638 279.122 135.733C279.103 135.828 279.064 135.918 279.009 135.997V135.997C278.907 136.161 278.745 136.278 278.557 136.322C278.37 136.366 278.172 136.335 278.008 136.234H277.974C277.306 135.692 276.489 135.367 275.632 135.301C275.051 135.293 274.483 135.469 274.007 135.801C273.842 135.892 273.703 136.025 273.606 136.186C273.508 136.348 273.455 136.533 273.452 136.721C273.437 136.862 273.473 137.004 273.554 137.12C273.658 137.269 273.789 137.398 273.94 137.499C274.499 137.83 275.117 138.048 275.76 138.142V138.142C276.46 138.263 277.142 138.47 277.791 138.758C278.382 139.01 278.888 139.428 279.246 139.962C279.476 140.334 279.6 140.762 279.605 141.2C279.582 141.645 279.455 142.079 279.232 142.466C279.01 142.853 278.699 143.182 278.326 143.426C277.536 143.988 276.587 144.282 275.618 144.265C274.249 144.191 272.941 143.676 271.889 142.797C271.757 142.672 271.673 142.505 271.649 142.325C271.626 142.146 271.665 141.963 271.76 141.809V141.809Z" fill="white"/>
<path d="M281.351 139.109C281.376 137.71 281.951 136.376 282.951 135.396C283.952 134.416 285.298 133.869 286.698 133.873C287.916 133.843 289.109 134.224 290.083 134.956C290.25 135.097 290.358 135.296 290.383 135.514C290.408 135.731 290.349 135.95 290.218 136.126C290.082 136.296 289.885 136.407 289.669 136.434C289.454 136.462 289.235 136.405 289.061 136.275C288.395 135.748 287.567 135.468 286.719 135.483C285.737 135.502 284.799 135.891 284.092 136.572C283.411 137.242 283.021 138.154 283.009 139.109C283.013 139.581 283.111 140.047 283.297 140.48C283.483 140.913 283.753 141.305 284.092 141.633C284.798 142.316 285.737 142.703 286.719 142.715C287.568 142.728 288.396 142.446 289.061 141.917C289.239 141.795 289.457 141.744 289.671 141.774C289.885 141.804 290.08 141.913 290.218 142.079C290.348 142.253 290.407 142.47 290.381 142.685C290.356 142.9 290.249 143.098 290.083 143.236C289.109 143.97 287.917 144.354 286.698 144.326C285.301 144.331 283.957 143.787 282.956 142.812C281.956 141.836 281.38 140.506 281.351 139.109V139.109Z" fill="white"/>
<path d="M293.034 143.541V134.976C293.032 134.872 293.051 134.769 293.089 134.673C293.127 134.577 293.184 134.489 293.257 134.415C293.329 134.34 293.415 134.281 293.511 134.24C293.606 134.2 293.709 134.178 293.812 134.178V134.178C293.918 134.175 294.023 134.193 294.122 134.232C294.22 134.27 294.31 134.328 294.385 134.402C294.461 134.476 294.521 134.564 294.562 134.661C294.603 134.759 294.624 134.863 294.624 134.969V138.46H298.395V134.969C298.394 134.865 298.413 134.762 298.452 134.666C298.491 134.569 298.549 134.481 298.622 134.407C298.695 134.333 298.781 134.274 298.877 134.234C298.973 134.193 299.076 134.172 299.18 134.171C299.286 134.17 299.39 134.19 299.489 134.229C299.587 134.269 299.676 134.328 299.751 134.402C299.827 134.476 299.887 134.564 299.928 134.661C299.969 134.759 299.991 134.863 299.992 134.969V143.561C299.992 143.775 299.907 143.979 299.756 144.13C299.605 144.281 299.4 144.366 299.187 144.366C299.083 144.368 298.979 144.349 298.882 144.311C298.786 144.273 298.697 144.216 298.623 144.144C298.548 144.072 298.488 143.985 298.446 143.89C298.405 143.795 298.383 143.692 298.381 143.588V140.043H294.611V143.534C294.613 143.745 294.531 143.947 294.384 144.098C294.237 144.249 294.036 144.336 293.826 144.339H293.792C293.583 144.341 293.382 144.26 293.232 144.114C293.083 143.969 292.997 143.77 292.993 143.561L293.034 143.541Z" fill="white"/>
<path d="M310.964 135.422C311.905 136.42 312.433 137.738 312.439 139.109C312.44 140.478 311.911 141.794 310.964 142.783C310.523 143.271 309.986 143.662 309.386 143.931C308.785 144.2 308.136 144.341 307.478 144.346C306.808 144.344 306.146 144.204 305.532 143.935C304.918 143.666 304.367 143.274 303.911 142.783C302.972 141.792 302.455 140.475 302.469 139.109C302.462 137.742 302.978 136.423 303.911 135.422C304.367 134.933 304.92 134.543 305.533 134.277C306.147 134.01 306.809 133.873 307.478 133.873C308.135 133.876 308.784 134.015 309.384 134.282C309.984 134.548 310.522 134.937 310.964 135.422V135.422ZM310.781 139.109C310.774 138.165 310.417 137.256 309.779 136.559C309.502 136.253 309.167 136.006 308.793 135.83C308.42 135.654 308.015 135.553 307.603 135.534C307.19 135.514 306.778 135.576 306.39 135.716C306.001 135.856 305.644 136.071 305.339 136.349C305.264 136.414 305.194 136.484 305.129 136.559C304.479 137.249 304.121 138.162 304.128 139.109C304.121 139.575 304.205 140.038 304.377 140.471C304.549 140.904 304.805 141.299 305.129 141.633C305.674 142.249 306.441 142.625 307.262 142.677C308.083 142.729 308.891 142.453 309.509 141.91C309.603 141.822 309.691 141.728 309.779 141.633C310.422 140.949 310.78 140.047 310.781 139.109V139.109Z" fill="white"/>
<path d="M323.195 135.422C324.136 136.42 324.664 137.738 324.67 139.109C324.673 140.479 324.144 141.796 323.195 142.783C322.755 143.27 322.218 143.661 321.62 143.93C321.021 144.199 320.372 144.341 319.716 144.346C319.047 144.342 318.386 144.201 317.774 143.933C317.162 143.664 316.611 143.273 316.155 142.783C315.215 141.792 314.698 140.475 314.714 139.109C314.701 137.741 315.217 136.42 316.155 135.422C316.611 134.934 317.162 134.544 317.775 134.278C318.387 134.011 319.048 133.874 319.716 133.873C320.371 133.877 321.019 134.016 321.618 134.283C322.217 134.55 322.754 134.938 323.195 135.422V135.422ZM323.012 139.109C323.013 138.166 322.661 137.256 322.024 136.559C321.745 136.253 321.409 136.004 321.034 135.828C320.659 135.652 320.253 135.552 319.839 135.533C319.425 135.514 319.012 135.577 318.623 135.719C318.233 135.86 317.876 136.076 317.57 136.356C317.496 136.417 317.428 136.491 317.36 136.559C316.723 137.256 316.371 138.166 316.372 139.109C316.365 140.046 316.719 140.95 317.36 141.633C317.908 142.251 318.679 142.627 319.504 142.678C320.329 142.728 321.14 142.45 321.76 141.904C321.855 141.82 321.943 141.73 322.024 141.633C322.665 140.95 323.019 140.046 323.012 139.109V139.109Z" fill="white"/>
<path d="M327.459 143.541V134.976C327.478 134.774 327.571 134.587 327.72 134.45C327.87 134.314 328.065 134.238 328.268 134.238C328.47 134.238 328.666 134.314 328.815 134.45C328.965 134.587 329.058 134.774 329.077 134.976V142.749H333.016C333.23 142.775 333.425 142.883 333.56 143.052C333.694 143.22 333.756 143.435 333.734 143.649C333.714 143.833 333.633 144.004 333.502 144.135C333.371 144.265 333.2 144.347 333.016 144.366H328.278C328.064 144.366 327.86 144.281 327.708 144.13C327.557 143.979 327.473 143.775 327.473 143.561L327.459 143.541Z" fill="white"/>
<path d="M84.1881 327.356H75.3821V330.393H84.1881V327.356Z" fill="#8A70D6"/>
<path d="M79.274 334.209C76.6749 334.209 73.0605 334.331 70.4748 334.331H70.3936V331.097H70.5358C73.1281 331.097 76.7832 331.097 79.335 331.165H79.4094V331.219L79.335 334.263L79.274 334.209ZM79.274 334.209L79.2131 331.198L79.274 331.273H70.4748L70.6034 331.131V334.209L70.4816 334.08C73.0131 334.08 76.7087 334.155 79.2808 334.209H79.274Z" fill="#8A70D6"/>
<path d="M228.306 242.877C225.693 242.877 222.078 242.992 219.506 242.992H219.385V239.744H219.527C222.119 239.744 225.774 239.744 228.326 239.805H228.394V239.873L228.326 242.917L228.306 242.877ZM228.306 242.877L228.231 239.825L228.306 239.907H219.506L219.635 239.765V242.809L219.513 242.68C222.045 242.68 225.754 242.768 228.312 242.809L228.306 242.877Z" fill="#8A70D6"/>
<path d="M223.391 243.648H214.586V246.685H223.391V243.648Z" fill="#8A70D6"/>
<path d="M218.498 242.877C215.885 242.877 212.277 242.992 209.699 242.992H209.583V239.697H209.719C212.311 239.697 215.966 239.697 218.518 239.765H218.579V239.825L218.518 242.877H218.498ZM218.498 242.877L218.423 239.825L218.498 239.907H209.699L209.827 239.765V242.809L209.712 242.68C212.237 242.68 215.946 242.768 218.511 242.809L218.498 242.877Z" fill="#8A70D6"/>
<path d="M491.124 220.849C488.512 220.849 484.897 220.977 482.325 220.964H482.203V217.709H482.345C484.938 217.709 488.593 217.709 491.144 217.791H491.212V217.845L491.144 220.882L491.124 220.849ZM491.124 220.849L491.05 217.811L491.124 217.872H482.325L482.454 217.743V220.781L482.332 220.659C484.863 220.659 488.572 220.74 491.131 220.781L491.124 220.849Z" fill="#8A70D6"/>
<path d="M491.124 282.961C488.512 282.961 484.897 283.09 482.325 283.09H482.203V279.782H482.345C484.938 279.782 488.593 279.782 491.144 279.856H491.212V279.924L491.144 282.961H491.124ZM491.124 282.961L491.05 279.924L491.124 279.991L486.718 280.046H482.318L482.447 279.91V282.948L482.325 282.826C484.856 282.826 488.566 282.907 491.124 282.948V282.961Z" fill="#8A70D6"/>
<path d="M495.971 213.961H487.165V216.999H495.971V213.961Z" fill="#8A70D6"/>
<path d="M384.471 220.26H375.665V223.298H384.471V220.26Z" fill="#8A70D6"/>
<path d="M384.505 333.438C381.892 333.438 378.278 333.573 375.706 333.56H375.584V330.265H375.726C378.318 330.265 381.973 330.265 384.525 330.326H384.593V330.407L384.525 333.438H384.505ZM384.505 333.438L384.431 330.407L384.505 330.468H375.706L375.834 330.339V333.377L375.719 333.242C378.244 333.242 381.953 333.329 384.519 333.377L384.505 333.438Z" fill="#8A70D6"/>
<path d="M389.351 326.557H380.545V329.595H389.351V326.557Z" fill="#8A70D6"/>
<path d="M486.19 217.006C483.584 217.006 479.97 217.134 477.391 217.128H477.262V213.873H477.404C479.997 213.873 483.652 213.873 486.203 213.941H486.285V214.002L486.203 217.04L486.19 217.006ZM486.19 217.006L486.122 213.975L486.19 214.036L481.797 214.09H477.391L477.519 213.961V216.999L477.404 216.877C479.929 216.877 483.631 216.952 486.203 216.999L486.19 217.006Z" fill="#8A70D6"/>
<path d="M123.358 248.965C120.745 248.965 117.131 249.094 114.559 249.094H114.437V245.84H114.579C117.172 245.84 120.827 245.84 123.378 245.907H123.446V245.968L123.378 249.006L123.358 248.965ZM123.358 248.965L123.297 245.928L123.358 245.995L118.959 246.05H114.552L114.694 245.907V248.965L114.572 248.85C117.104 248.85 120.813 248.925 123.372 248.965H123.358Z" fill="#8A70D6"/>
<path d="M223.425 332.389C220.813 332.389 217.198 332.518 214.626 332.504H214.504V329.257H214.66C217.252 329.257 220.907 329.257 223.459 329.318H223.52V329.399L223.459 332.43L223.425 332.389ZM223.425 332.389L223.358 329.351L223.425 329.419L219.019 329.473H214.653L214.789 329.338V332.376L214.653 332.301C217.178 332.301 220.887 332.376 223.452 332.423L223.425 332.389Z" fill="#8A70D6"/>
<path d="M113.557 248.965C110.938 248.965 107.33 249.094 104.758 249.094H104.643V245.84H104.771C107.364 245.84 111.019 245.84 113.571 245.907H113.638V245.968L113.571 249.006L113.557 248.965ZM113.557 248.965L113.489 245.928L113.557 245.995L109.151 246.05H104.744L104.887 245.907V248.965L104.765 248.85C107.296 248.85 111.005 248.925 113.564 248.965H113.557Z" fill="#8A70D6"/>
<path d="M348.713 301.282C346.107 301.282 342.485 301.404 339.913 301.404H339.785V298.15H339.927C342.519 298.15 346.161 298.15 348.726 298.217H348.807V298.278L348.726 301.323L348.713 301.282ZM348.713 301.282L348.645 298.238L348.713 298.312H339.967L340.096 298.17V301.214L339.981 301.086C342.506 301.086 346.208 301.174 348.78 301.214L348.713 301.282Z" fill="#8A70D6"/>
<path d="M348.713 176.576C346.107 176.576 342.485 176.705 339.913 176.691H339.785V173.437H339.927C342.519 173.437 346.161 173.437 348.726 173.505H348.807V173.572L348.719 176.576H348.713ZM348.713 176.576L348.645 173.538L348.713 173.606H339.967L340.096 173.471V176.508L339.981 176.387C342.506 176.387 346.208 176.468 348.78 176.508L348.713 176.576Z" fill="#8A70D6"/>
<path d="M353.62 177.361H344.814V180.398H353.62V177.361Z" fill="#8A70D6"/>
<path d="M157.161 211.438H148.355V214.476H157.161V211.438Z" fill="#8A70D6"/>
<path d="M49.3026 367.677C198.997 367.001 366.954 367.001 516.669 367.677C366.974 368.354 198.997 368.354 49.3026 367.677Z" fill="#313031"/>
<path d="M49.3026 457.454C198.997 456.777 366.954 456.777 516.669 457.454C366.974 458.123 198.997 458.11 49.3026 457.454Z" fill="#313031"/>
<path d="M509.298 359.545H56.6736V367.427H509.298V359.545Z" fill="#C7C7C7"/>
<path d="M88.4117 359.545C89.1156 362.125 89.1156 364.847 88.4117 367.427C88.026 366.153 87.8433 364.827 87.8702 363.496C87.85 362.159 88.0325 360.827 88.4117 359.545V359.545Z" fill="#313031"/>
<path d="M123.785 359.545C124.157 360.829 124.339 362.16 124.326 363.496C124.346 364.826 124.164 366.152 123.785 367.427C123.074 364.848 123.074 362.125 123.785 359.545V359.545Z" fill="#313031"/>
<path d="M159.164 359.545C159.875 362.125 159.875 364.848 159.164 367.427C158.785 366.152 158.602 364.826 158.623 363.496C158.609 362.16 158.792 360.829 159.164 359.545V359.545Z" fill="#313031"/>
<path d="M194.537 359.545C194.916 360.827 195.099 362.159 195.078 363.496C195.105 364.827 194.923 366.153 194.537 367.427C193.833 364.847 193.833 362.125 194.537 359.545V359.545Z" fill="#313031"/>
<path d="M229.923 359.545C230.634 362.125 230.634 364.848 229.923 367.427C229.544 366.152 229.362 364.826 229.382 363.496C229.362 362.159 229.544 360.827 229.923 359.545Z" fill="#313031"/>
<path d="M265.33 359.545C265.709 360.827 265.892 362.159 265.871 363.496C265.892 364.826 265.709 366.152 265.33 367.427C264.619 364.848 264.619 362.125 265.33 359.545V359.545Z" fill="#313031"/>
<path d="M300.682 359.545C301.386 362.125 301.386 364.847 300.682 367.427C300.298 366.153 300.113 364.827 300.134 363.496C300.12 362.159 300.304 360.828 300.682 359.545V359.545Z" fill="#313031"/>
<path d="M336.055 359.545C336.428 360.829 336.61 362.16 336.597 363.496C336.617 364.826 336.434 366.152 336.055 367.427C335.345 364.848 335.345 362.125 336.055 359.545V359.545Z" fill="#313031"/>
<path d="M371.435 359.545C372.145 362.125 372.145 364.848 371.435 367.427C371.056 366.152 370.873 364.826 370.893 363.496C370.873 362.159 371.056 360.827 371.435 359.545V359.545Z" fill="#313031"/>
<path d="M406.794 359.545C407.173 360.827 407.356 362.159 407.336 363.496C407.356 364.826 407.173 366.152 406.794 367.427C406.083 364.848 406.083 362.125 406.794 359.545Z" fill="#313031"/>
<path d="M442.194 359.545C442.898 362.125 442.898 364.847 442.194 367.427C441.808 366.153 441.626 364.827 441.652 363.496C441.632 362.159 441.815 360.827 442.194 359.545V359.545Z" fill="#313031"/>
<path d="M477.567 359.545C477.939 360.829 478.122 362.16 478.108 363.496C478.128 364.826 477.946 366.152 477.567 367.427C476.856 364.848 476.856 362.125 477.567 359.545V359.545Z" fill="#313031"/>
<path d="M250.588 367.677H315.391L437.821 457.447H128.232L250.588 367.677Z" fill="#EBEBEB"/>
<path d="M107.716 359.545C107.716 359.545 106.809 355.297 105.008 354.634C103.208 353.971 102.071 355.892 102.071 355.892C102.071 355.892 101.651 351.833 99.0588 350.602C96.4664 349.37 94.5305 351.88 94.5305 351.88C94.5305 351.88 92.5473 346.718 89.0006 346.718C85.4538 346.718 83.6737 354.309 83.6737 354.309C83.6737 354.309 81.5822 352.063 79.4365 353.335C77.2909 354.607 77.2638 359.593 77.2638 359.593L107.716 359.545Z" fill="#313031"/>
<path d="M410.178 359.545C410.178 359.545 409.265 355.297 407.471 354.634C405.677 353.971 404.54 355.892 404.54 355.892C404.54 355.892 404.107 351.833 401.521 350.602C398.936 349.37 397 351.88 397 351.88C397 351.88 395.017 346.718 391.47 346.718C387.923 346.718 386.129 354.309 386.129 354.309C386.129 354.309 384.051 352.063 381.899 353.335C379.747 354.607 379.733 359.593 379.733 359.593L410.178 359.545Z" fill="#313031"/>
<path d="M188.289 359.545H156.24C156.24 359.545 157.323 355.04 159.415 354.715C160.054 354.656 160.697 354.794 161.256 355.111C161.815 355.428 162.264 355.908 162.542 356.487C162.542 356.487 162.44 350.189 166.413 349.12C170.386 348.051 173.703 353.605 173.703 353.605C173.703 353.605 176.194 350.439 179.578 350.635C182.963 350.831 183.842 356.048 183.842 356.048C183.842 356.048 186.922 354.268 188.289 359.545Z" fill="#313031"/>
<path d="M79.2334 359.545H62.366C62.366 359.545 62.366 357.042 64.0582 356.372C64.5087 356.178 65.0103 356.135 65.4875 356.249C65.9648 356.364 66.3919 356.63 66.7047 357.008C66.7047 357.008 67.3816 352.394 70.4681 352.394C73.5546 352.394 75.0437 356.372 75.0437 356.372C75.3063 355.992 75.6742 355.697 76.1022 355.523C76.5302 355.349 76.9997 355.303 77.4533 355.391C79.1928 355.621 79.2334 359.545 79.2334 359.545Z" fill="#313031"/>
<path opacity="0.5" d="M79.2334 359.545H62.366C62.366 359.545 62.366 357.042 64.0582 356.372C64.5087 356.178 65.0103 356.135 65.4875 356.249C65.9648 356.364 66.3919 356.63 66.7047 357.008C66.7047 357.008 67.3816 352.394 70.4681 352.394C73.5546 352.394 75.0437 356.372 75.0437 356.372C75.3063 355.992 75.6742 355.697 76.1022 355.523C76.5302 355.349 76.9997 355.303 77.4533 355.391C79.1928 355.621 79.2334 359.545 79.2334 359.545Z" fill="#313031"/>
<path d="M201.522 359.545H184.655C184.655 359.545 184.655 357.042 186.347 356.372C186.797 356.177 187.299 356.133 187.777 356.248C188.254 356.362 188.681 356.629 188.993 357.008C188.993 357.008 189.67 352.394 192.77 352.394C195.87 352.394 197.292 356.372 197.292 356.372C197.554 355.992 197.922 355.697 198.35 355.523C198.778 355.349 199.248 355.303 199.701 355.391C201.461 355.621 201.522 359.545 201.522 359.545Z" fill="#313031"/>
<path opacity="0.5" d="M201.522 359.545H184.655C184.655 359.545 184.655 357.042 186.347 356.372C186.797 356.177 187.299 356.133 187.777 356.248C188.254 356.362 188.681 356.629 188.993 357.008C188.993 357.008 189.67 352.394 192.77 352.394C195.87 352.394 197.292 356.372 197.292 356.372C197.554 355.992 197.922 355.697 198.35 355.523C198.778 355.349 199.248 355.303 199.701 355.391C201.461 355.621 201.522 359.545 201.522 359.545Z" fill="#313031"/>
<path d="M478.995 359.545H462.128C462.128 359.545 462.128 357.042 463.82 356.372C464.27 356.178 464.772 356.135 465.249 356.249C465.726 356.364 466.153 356.63 466.466 357.008C466.466 357.008 467.143 352.394 470.23 352.394C473.316 352.394 474.812 356.372 474.812 356.372C475.073 355.992 475.44 355.697 475.867 355.522C476.294 355.348 476.762 355.303 477.215 355.391C478.934 355.621 478.995 359.545 478.995 359.545Z" fill="#313031"/>
<path opacity="0.5" d="M478.995 359.545H462.128C462.128 359.545 462.128 357.042 463.82 356.372C464.27 356.178 464.772 356.135 465.249 356.249C465.726 356.364 466.153 356.63 466.466 357.008C466.466 357.008 467.143 352.394 470.23 352.394C473.316 352.394 474.812 356.372 474.812 356.372C475.073 355.992 475.44 355.697 475.867 355.522C476.294 355.348 476.762 355.303 477.215 355.391C478.934 355.621 478.995 359.545 478.995 359.545Z" fill="#313031"/>
<path d="M503.585 359.545H475.793C475.793 359.545 475.861 355.418 478.595 354.309C479.339 353.998 480.163 353.935 480.945 354.13C481.727 354.325 482.425 354.767 482.934 355.391C482.934 355.391 484.017 347.807 489.148 347.807C494.278 347.807 496.674 354.309 496.674 354.309C497.108 353.683 497.714 353.196 498.42 352.909C499.126 352.622 499.9 352.546 500.648 352.692C503.497 353.064 503.585 359.545 503.585 359.545Z" fill="#313031"/>
<path d="M341.402 443.368L354.358 443.781C371.469 444.457 373.269 442.428 373.269 442.428C374.034 441.393 373.547 437.651 373.547 437.651C373.31 438.93 371.963 439.681 370.663 440.141C369.412 440.558 368.096 440.745 366.778 440.696L349.058 440.155C343.717 440.053 341.308 438.998 340.367 438.402C340.2 438.296 340.058 438.157 339.948 437.992C339.839 437.828 339.764 437.643 339.731 437.448C338.966 443.436 341.402 443.368 341.402 443.368Z" fill="#313031"/>
<path d="M305.414 447.042C307.625 447.365 309.8 447.895 311.912 448.625C317.266 450.106 323.418 449.437 326.085 449.017C326.726 448.919 327.317 448.616 327.771 448.154C328.225 447.692 328.517 447.095 328.603 446.453C328.689 445.749 328.719 445.038 328.691 444.329C328.536 444.713 328.237 445.021 327.858 445.188C326.241 445.905 320.927 447.671 313.191 444.248C310.059 443.353 306.882 442.621 303.674 442.056C303.674 442.056 295.268 441.832 293.372 438.26C288.411 447.495 305.414 447.042 305.414 447.042Z" fill="#313031"/>
<path d="M305.299 271.088C305.299 271.088 303.715 271.663 300.391 272.82L298.104 283.056C298.104 283.056 301.224 284.348 302.09 284.639L301.204 287.772C301.204 287.772 289.866 287.832 290.875 281.196L292.465 251.888L302.287 231.24L314.565 238.892L305.299 271.088Z" fill="#313031"/>
<path opacity="0.2" d="M305.299 271.088C305.299 271.088 303.715 271.663 300.391 272.82L298.104 283.056C298.104 283.056 301.224 284.348 302.09 284.639L301.204 287.772C301.204 287.772 289.866 287.832 290.875 281.196L292.465 251.888L302.287 231.24L314.565 238.892L305.299 271.088Z" fill="#313031"/>
<path d="M487.226 448.185C485.527 450.722 479.699 450.54 479.699 450.54C476.315 450.54 471.658 452.305 471.658 452.305C463.217 455.282 456.949 452.63 456.949 452.63C456.6 452.381 456.348 452.017 456.239 451.602C455.853 449.687 460.002 447.725 460.002 447.725C464.936 445.804 470.121 442.252 472.03 440.885C472.49 440.544 472.869 440.105 473.14 439.6C474.243 437.604 475.658 437.273 475.658 437.273C475.658 437.273 480.47 437.273 479.042 441.826C479.633 441.798 480.207 441.627 480.717 441.328C481.226 441.028 481.655 440.609 481.966 440.107C482.815 438.994 483.981 438.161 485.31 437.719C485.717 440.133 486.382 442.496 487.293 444.769C487.909 446.25 487.787 447.36 487.226 448.185Z" fill="#8A70D6"/>
<path d="M480.267 454.078C477.933 453.924 475.594 454.308 473.431 455.201C460.726 458.902 456.706 455.519 456.706 455.519C455.636 454.842 456.029 452.407 456.239 451.602C456.354 452.007 456.605 452.36 456.95 452.603C456.95 452.603 463.217 455.255 471.658 452.278C471.658 452.278 476.328 450.512 479.699 450.512C479.699 450.512 485.527 450.695 487.226 448.158C489.432 455.6 480.267 454.078 480.267 454.078Z" fill="#313031"/>
<path d="M522.314 447.908C522.325 448.285 522.22 448.656 522.013 448.972C521.806 449.288 521.507 449.533 521.157 449.673C520.074 450.066 518.918 450.209 517.772 450.093C517.156 450.035 516.535 450.035 515.918 450.093C512.872 450.384 503.734 450.986 504.729 447.265C504.729 447.265 504.729 445.695 507.125 442.8C507.711 442.2 508.137 441.462 508.364 440.655C508.364 440.655 508.533 434.79 514.151 435.202C514.151 435.202 517.238 434.661 518.341 440.493C518.422 440.915 518.627 441.304 518.93 441.609C519.959 442.631 522.233 445.242 522.314 447.908Z" fill="#8A70D6"/>
<path d="M522.585 450.025C522.577 450.487 522.412 450.933 522.117 451.288C521.821 451.644 521.413 451.888 520.96 451.98C515.972 452.894 508.777 452.183 506.069 451.859C505.709 451.819 505.37 451.667 505.1 451.424C504.83 451.181 504.644 450.86 504.567 450.506C504.359 449.423 504.42 448.306 504.743 447.251C503.727 450.972 512.865 450.37 515.931 450.079C516.548 450.022 517.169 450.022 517.786 450.079C518.931 450.195 520.088 450.052 521.17 449.66C521.52 449.519 521.819 449.274 522.026 448.959C522.233 448.643 522.338 448.271 522.328 447.894C522.52 448.588 522.607 449.306 522.585 450.025Z" fill="#313031"/>
<path d="M289.859 222.58C291.159 224.211 297.982 232.478 305.745 236.788C305.87 236.854 306.011 236.88 306.151 236.861C306.29 236.843 306.421 236.782 306.524 236.686L308.256 235.069L298.104 283.103C299.388 283.739 300.724 284.267 302.097 284.68C307.343 286.364 317.814 288.583 333.835 286.973C334.607 286.892 335.385 286.811 336.177 286.709C341.114 286.111 346.015 285.246 350.858 284.118L351.535 283.969C351.866 283.892 352.16 283.7 352.364 283.428C352.569 283.156 352.67 282.821 352.652 282.481C352.361 277.475 351.373 258.017 352.72 246.016C352.72 246.016 359.948 209.327 347.846 195.857L328.86 192.38C325.857 192.087 322.831 192.1 319.831 192.421C317.515 192.691 315.275 193.416 313.24 194.554C311.205 195.692 309.415 197.22 307.972 199.051L289.886 222.012C289.82 222.091 289.781 222.189 289.776 222.292C289.771 222.395 289.801 222.496 289.859 222.58Z" fill="#8A70D6"/>
<path d="M525.563 256.489L531.459 257.808L525.015 253.708L525.563 256.489Z" fill="#F7A48B"/>
<path d="M339.731 437.482C339.764 437.677 339.839 437.862 339.948 438.026C340.058 438.19 340.2 438.33 340.367 438.436C341.308 439.032 343.717 440.087 349.058 440.188L366.778 440.73C368.096 440.779 369.412 440.591 370.663 440.175C371.963 439.728 373.31 438.964 373.547 437.685C373.607 437.37 373.607 437.046 373.547 436.731C373.547 436.731 372.755 434.14 367.455 433.93C367.455 433.93 360.47 432.638 356.3 430.48C356.3 430.48 355.075 428.248 353.058 429.127C353.058 429.127 350.351 432.144 346.655 431.157C346.655 431.157 342.878 430.67 342.12 428.64C342.079 428.606 338.952 432.868 339.731 437.482Z" fill="#8A70D6"/>
<path d="M293.372 438.26C295.267 441.832 303.674 442.056 303.674 442.056C306.882 442.621 310.059 443.353 313.191 444.248C320.927 447.671 326.241 445.905 327.858 445.188C328.237 445.021 328.536 444.713 328.691 444.329C329.882 441.176 323.242 439.593 323.242 439.593C317.272 437.476 311.059 432.645 311.059 432.645C309.549 430.453 308.568 431.211 308.568 431.211L296.648 428.924C295.213 430.277 293.629 434.438 293.629 434.438C292.824 436.007 292.844 437.266 293.372 438.26Z" fill="#8A70D6"/>
<path d="M352.368 428.248L353.044 429.107C352.244 429.97 351.233 430.61 350.111 430.966C348.988 431.321 347.793 431.38 346.641 431.136C346.641 431.136 341.172 430.203 342.106 427.544L343.616 425.454L351.176 425.812L352.368 428.248Z" fill="#F9B499"/>
<path d="M308.053 429.898L308.588 431.184C308.588 431.184 301.332 434.336 296.648 428.924L296.432 427.348L300.953 425.223L308.053 429.898Z" fill="#F9B499"/>
<path d="M361.729 170.825C361.729 170.825 361.316 172.057 358.696 173.599L357.837 169.276C358.192 169.107 358.578 169.013 358.971 169.001C359.364 168.988 359.756 169.056 360.121 169.202C360.486 169.347 360.818 169.566 361.094 169.846C361.371 170.125 361.587 170.459 361.729 170.825V170.825Z" fill="#313031"/>
<path opacity="0.2" d="M361.729 170.825C361.729 170.825 361.316 172.057 358.696 173.599L357.837 169.276C358.192 169.107 358.578 169.013 358.971 169.001C359.364 168.988 359.756 169.056 360.121 169.202C360.486 169.347 360.818 169.566 361.094 169.846C361.371 170.125 361.587 170.459 361.729 170.825V170.825Z" fill="#313031"/>
<path d="M380.471 224.177L384.891 227.675C385.507 228.167 386.241 228.488 387.02 228.607C387.8 228.726 388.597 228.638 389.331 228.351L418.734 216.708C418.734 216.708 419.33 216.559 420.23 213.407C420.899 210.606 422.358 208.057 424.433 206.059C424.433 206.059 429.239 200.363 430.437 203.062C430.437 203.062 430.884 204.26 428.183 206.357C428.183 206.357 425.475 210.112 427.587 210.856C430.054 211.241 432.58 210.821 434.789 209.659C434.789 209.659 443.791 203.062 444.692 205.762C444.933 205.736 445.176 205.776 445.397 205.877C445.618 205.978 445.807 206.137 445.945 206.336C446.084 206.535 446.166 206.767 446.183 207.009C446.201 207.251 446.153 207.493 446.045 207.71C446.045 207.71 447.399 207.859 446.946 209.659C446.946 209.659 449.199 209.956 445.896 213.109C445.896 213.109 441.693 219.259 436.745 219.556C436.745 219.556 428.345 220.159 423.689 224.806L417.089 229.454C417.089 229.454 392.932 248.654 383.476 243.404L371.922 236.957C375.534 233.259 378.432 228.926 380.471 224.177V224.177Z" fill="#F9B499"/>
<path d="M444.698 205.735C443.394 206.851 442.004 207.865 440.542 208.766C439.816 209.228 439.065 209.652 438.295 210.038C437.909 210.227 437.517 210.403 437.111 210.558C436.901 210.626 436.705 210.701 436.488 210.748C436.383 210.777 436.277 210.799 436.17 210.816H435.845C436.258 210.717 436.653 210.555 437.016 210.335C437.395 210.139 437.76 209.929 438.126 209.706C438.857 209.273 439.581 208.82 440.299 208.353C441.747 207.487 443.189 206.567 444.698 205.735Z" fill="#F7A48B"/>
<path d="M446.052 207.697C444.893 208.776 443.646 209.756 442.323 210.626C441.646 211.059 440.969 211.479 440.292 211.851C439.598 212.241 438.865 212.558 438.106 212.798C438.783 212.405 439.459 211.966 440.136 211.546L442.099 210.247C443.345 209.368 444.698 208.488 446.052 207.697Z" fill="#F7A48B"/>
<path d="M446.939 209.632C445.773 210.902 444.488 212.057 443.101 213.082C442.412 213.604 441.688 214.078 440.935 214.503C440.192 214.953 439.384 215.284 438.539 215.484C439.312 215.121 440.052 214.694 440.752 214.205C441.429 213.725 442.153 213.231 442.83 212.717C444.204 211.702 445.544 210.646 446.939 209.632Z" fill="#F7A48B"/>
<path d="M427.587 210.829C427.722 211.554 427.791 212.29 427.79 213.028C427.793 213.77 427.727 214.51 427.594 215.24C427.466 215.984 427.205 216.7 426.822 217.351C426.627 217.681 426.372 217.972 426.071 218.21C425.769 218.438 425.412 218.583 425.035 218.63C425.695 218.354 426.224 217.836 426.511 217.182C426.812 216.536 427.026 215.854 427.147 215.152C427.289 214.476 427.364 213.731 427.438 213.008C427.513 212.284 427.547 211.566 427.587 210.829Z" fill="#F7A48B"/>
<path d="M487.083 419.595C485.702 425.533 485.106 431.626 485.31 437.719C483.979 438.165 482.814 439.002 481.966 440.121C481.655 440.623 481.226 441.042 480.717 441.341C480.207 441.64 479.633 441.811 479.042 441.839C480.504 437.286 475.658 437.286 475.658 437.286C477.208 436.258 477.012 433.173 477.012 433.173C475.983 423.701 471.732 392.79 471.732 392.79L472.72 390.084L482.765 388.055L491.036 393.068C491.463 400.192 487.083 419.595 487.083 419.595Z" fill="#F9B499"/>
<path d="M504.878 392.493C504.878 392.493 506.144 411.436 508.675 424.405C508.675 424.405 510.097 432.936 509.149 438.145L517.271 437.996C517.271 437.996 517.684 437.753 517.691 436.88C517.654 434.426 517.856 431.975 518.293 429.56C520.365 419.304 524.629 397.283 524.433 391.356L508.811 381.722L504.878 392.493Z" fill="#F9B499"/>
<path d="M478.176 260.927C478.176 260.927 465.194 259.364 462.222 274.525L453.931 304.232C453.931 304.232 449.551 319.711 460.659 320.807L467.075 322.214L479.739 261.867L478.176 260.927Z" fill="#8A70D6"/>
<path opacity="0.6" d="M478.176 260.927C478.176 260.927 465.194 259.364 462.222 274.525L453.931 304.232C453.931 304.232 449.551 319.711 460.659 320.807L467.075 322.214L479.739 261.867L478.176 260.927Z" fill="white"/>
<path d="M535.256 390.233C535.313 390.92 535.141 391.607 534.766 392.186C534.391 392.765 533.835 393.204 533.184 393.433C529.133 394.737 524.743 394.496 520.859 392.756L520.703 392.682C513.291 389.123 507.843 391.207 506.489 391.836C506.279 391.931 506.171 391.992 506.171 391.992C494.089 398.385 484.261 394.631 480.985 392.993C480.582 392.789 480.192 392.563 479.814 392.317C479.035 391.728 478.109 391.367 477.137 391.274C476.166 391.181 475.187 391.359 474.311 391.789C473.5 392.206 472.65 392.541 471.773 392.79L471.461 392.872C467.177 393.893 464.354 393.548 462.662 393.007C462.077 392.819 461.571 392.44 461.226 391.931C460.881 391.422 460.717 390.812 460.76 390.199L465.424 321.321C467.827 280.939 477.925 265.371 477.925 265.371C492.302 272.556 517.434 266.86 517.434 266.86C530.924 281.013 531.154 335.515 531.154 335.515L535.256 390.233Z" fill="#313031"/>
<path opacity="0.5" d="M459.718 309.082L468.795 294.699C468.795 294.699 471.231 276.514 477.912 265.358C477.912 265.358 471.61 260.927 468.639 271.244L459.718 309.082Z" fill="white"/>
<path opacity="0.5" d="M459.406 314.393L467.569 300.186L465.539 318.317C465.539 318.317 463.786 319.244 459.406 314.393Z" fill="white"/>
<path d="M487.672 197.434L484.579 199.822L483.598 207.548L493.71 206.702L492.024 197.434H487.672Z" stroke="#313031" stroke-miterlimit="10"/>
<path d="M464.645 223.704C464.645 223.704 456.99 256.793 460.483 263.836L474.365 230.902C470.792 228.988 467.518 226.563 464.645 223.704V223.704Z" fill="#F7A48B"/>
<path d="M464.53 225.178C464.53 225.178 463.177 224.928 464.158 221.796C464.158 221.796 466.811 205.018 488.674 205.376C488.674 205.376 512.195 203.015 520.155 208.36C520.155 208.36 530.362 209.483 532.602 225.652C532.602 225.652 527.248 234.23 520.155 236.97L517.447 266.819C517.447 266.819 493.304 271.92 478.744 266.075C478.744 266.075 476.443 265.338 477.628 262.692C478.346 261.14 478.755 259.462 478.832 257.754C478.914 255.047 478.616 251.347 476.754 249.06L476.26 240.103L474.392 230.902C474.392 230.902 469.383 230.158 464.53 225.178Z" fill="#8A70D6"/>
<path opacity="0.2" d="M476.727 249.06L480.071 232.289C480.071 232.289 479.354 248.62 478.447 252.91C478.169 251.514 477.582 250.199 476.727 249.06Z" fill="#313031"/>
<path d="M493.432 234.88L501.487 271.886C501.493 271.917 501.504 271.946 501.522 271.972C501.539 271.998 501.561 272.02 501.587 272.037C501.613 272.054 501.642 272.066 501.672 272.071C501.703 272.077 501.734 272.076 501.765 272.069L527.587 266.691L519.83 227.898L494.245 233.642C494.109 233.668 493.98 233.722 493.866 233.799C493.751 233.876 493.653 233.975 493.578 234.09C493.502 234.205 493.45 234.335 493.425 234.47C493.4 234.606 493.403 234.745 493.432 234.88V234.88Z" fill="#D1D3D4"/>
<path d="M519.837 227.898L515.491 227.445L490.163 233.324L498.333 270.635L499.118 270.757" fill="#D1D3D4"/>
<path d="M491.246 233.053L499.118 270.757H501.25L493.236 233.892L519.539 227.993C519.549 227.989 519.558 227.982 519.565 227.973C519.571 227.964 519.574 227.953 519.574 227.942C519.574 227.931 519.571 227.92 519.565 227.911C519.558 227.902 519.549 227.895 519.539 227.891L515.227 227.384L491.246 233.053Z" fill="white"/>
<path opacity="0.2" d="M480.965 392.959C480.562 392.755 480.171 392.53 479.794 392.283C479.015 391.694 478.088 391.334 477.117 391.24C476.145 391.147 475.167 391.325 474.291 391.755C473.48 392.172 472.629 392.507 471.752 392.756C471.84 380.065 472.795 294.659 483.557 272.008C483.557 272.029 478.325 357.002 480.965 392.959Z" fill="#313031"/>
<path opacity="0.2" d="M520.859 392.723L520.703 392.648C513.292 389.09 507.843 391.173 506.489 391.803C506.286 378.272 505.047 287.934 508.059 273.226C508.039 273.226 520.507 362.549 520.859 392.723Z" fill="#313031"/>
<g opacity="0.2">
<path d="M516.777 215.308C516.832 215.815 516.859 216.316 516.906 216.823L516.994 218.339C517.062 219.347 517.096 220.368 517.143 221.356L517.366 227.411C517.156 226.419 517.002 225.416 516.906 224.407C516.791 223.399 516.737 222.378 516.689 221.376C516.642 220.375 516.628 219.347 516.649 218.345C516.669 217.344 516.689 216.323 516.777 215.308Z" fill="#313031"/>
</g>
<path d="M482.812 219.922C482.812 219.922 488.403 265.974 468.754 293.231L467.569 300.172C467.569 300.172 480.782 281.378 484.491 255.474C488.2 229.569 485.229 218.941 483.814 216.126L482.812 219.922Z" fill="#8A70D6"/>
<path opacity="0.5" d="M482.812 219.922C482.812 219.922 488.403 265.974 468.754 293.231L467.569 300.172C467.569 300.172 480.782 281.378 484.491 255.474C488.2 229.569 485.229 218.941 483.814 216.126L482.812 219.922Z" fill="white"/>
<path d="M347.826 195.817C347.826 195.817 354.073 197.772 362.277 205.187L381.195 220.348C381.422 220.536 381.581 220.793 381.648 221.08C381.715 221.367 381.687 221.668 381.567 221.938C380.058 225.172 374.799 235.739 369.776 238.547C369.541 238.682 369.273 238.75 369.002 238.741C368.73 238.733 368.466 238.649 368.24 238.499L354.466 229.386C354.466 229.386 357.383 207.135 347.826 195.817Z" fill="#8A70D6"/>
<path d="M327.743 192.711C327.953 197.028 328.542 213.123 326.498 223.954L321.144 220.747C321.144 220.747 322.647 200.262 321.882 193.111C321.838 192.75 321.899 192.384 322.059 192.057C322.219 191.731 322.47 191.457 322.782 191.27C323.341 190.932 323.971 190.73 324.623 190.681C325.274 190.632 325.928 190.736 326.532 190.986C326.878 191.127 327.177 191.364 327.392 191.67C327.607 191.976 327.729 192.338 327.743 192.711V192.711Z" fill="#313031"/>
<path d="M347.826 195.817C347.826 195.817 352.178 195.681 353.863 199.044C354.195 199.69 354.568 200.313 354.98 200.911C356.977 203.8 361.898 213.501 357.546 234.657L352.036 260.872C352.036 258.768 352.036 256.576 352.11 254.303C352.225 251.137 352.456 248.14 352.753 245.319C353.799 238.788 354.376 232.191 354.479 225.578C354.628 212.5 350.709 202.149 347.826 195.817Z" fill="#313031"/>
<path d="M320.311 221.816L351.244 238.1L326.735 282.813L296.283 266.048L320.311 221.816Z" fill="#8A70D6"/>
<path opacity="0.6" d="M320.311 221.816L351.244 238.1L326.735 282.813L296.283 266.048L320.311 221.816Z" fill="white"/>
<path d="M348.151 234.893L351.244 238.1L320.311 221.816L296.892 264.932L294.618 262.598L318.294 219.198L348.151 234.893Z" fill="white"/>
<path d="M296.54 424.1L296.29 427.037C296.285 427.095 296.295 427.154 296.32 427.208C296.345 427.261 296.384 427.307 296.432 427.341C299.999 429.925 306.537 429.871 307.789 429.831C307.852 429.829 307.912 429.81 307.964 429.775C308.015 429.74 308.056 429.692 308.08 429.634L309.82 425.792C310.422 425.033 310.749 424.094 310.749 423.126C310.749 422.158 310.422 421.219 309.82 420.461C311.248 418.898 309.942 416.401 309.942 416.401L319.323 381.567C319.323 381.567 329.862 336.029 329.605 339.276C329.581 339.582 329.581 339.89 329.605 340.196C329.76 343.22 331.696 346.441 331.696 346.441C331.602 347.345 331.773 348.257 332.189 349.066C332.605 349.874 333.248 350.544 334.038 350.994C331.331 362.048 338.722 410.847 338.722 410.847C337.422 414.906 340.286 419.04 340.286 419.04C338.851 422.037 340.962 422.944 340.962 422.944C340.744 423.541 340.666 424.18 340.734 424.812C340.802 425.445 341.015 426.053 341.355 426.59C344.062 430.358 352.936 428.018 352.936 428.018L353.071 421.516C355.156 418.81 352.679 415.529 352.679 415.529C355.278 413.702 352.936 410.191 352.936 410.191C358.669 372.981 357.106 345.135 357.106 345.135C357.606 308.893 351.379 285.864 350.885 284.091C325.043 290.031 309.042 286.872 302.151 284.653C294.943 307.594 303.505 352.814 303.505 352.814C302.416 355.764 301.973 358.913 302.205 362.048C296.993 373.11 296.114 414.23 296.114 414.23C295.697 414.654 295.378 415.164 295.176 415.723C294.974 416.282 294.895 416.879 294.945 417.471C294.994 418.064 295.171 418.639 295.462 419.157C295.754 419.675 296.154 420.124 296.635 420.474C296.216 420.981 295.979 421.614 295.962 422.271C295.945 422.928 296.148 423.572 296.54 424.1Z" fill="#313031"/>
<path opacity="0.2" d="M329.632 339.263C329.99 344.208 331.324 345.304 331.324 345.304C336.312 331.449 336.312 296.641 336.197 286.669C335.405 286.77 334.627 286.851 333.855 286.933C334.898 303.981 329.632 339.263 329.632 339.263Z" fill="#313031"/>
<path d="M489.913 199.47C490.065 201.328 489.771 203.195 489.053 204.916C488.803 205.42 488.682 205.978 488.701 206.54C488.769 207.812 489.649 209.652 493.994 209.923C493.994 209.923 502.117 210.383 504.249 205.958L504.709 195.012L496.817 188.409L489.913 199.47Z" fill="#F9B499"/>
<path d="M489.913 198.902C489.913 198.902 490.15 202.163 489.331 204.145C489.331 204.145 498.888 200.884 499.937 195.059L492.708 197.623L489.913 198.902Z" fill="#F7A48B"/>
<path d="M503.545 181.772C503.545 192.13 497.859 200.519 490.847 200.519C489.203 200.511 487.592 200.059 486.183 199.213C483.408 197.596 481.114 194.585 479.699 190.749C478.656 187.872 478.131 184.832 478.149 181.772C478.149 171.414 483.834 163.025 490.847 163.025C497.859 163.025 503.545 171.414 503.545 181.772Z" fill="#F9B499"/>
<path d="M479.665 172.808C479.665 172.808 484.322 164.77 489.331 164.655C489.506 166.297 490.116 167.863 491.099 169.19C492.082 170.518 493.401 171.558 494.921 172.206C495.137 172.302 495.326 172.448 495.475 172.631C495.623 172.814 495.725 173.03 495.774 173.261C495.967 174.169 495.875 175.114 495.51 175.967C495.51 175.967 494.339 179.81 497.372 180.513C497.372 180.513 498.888 180.858 498.888 183.538C499 184.289 499.357 184.983 499.904 185.51C500.452 186.037 501.158 186.369 501.913 186.453C501.913 186.453 503.43 189.248 499.937 195.066C499.854 195.457 499.873 195.864 499.991 196.246C500.11 196.629 500.324 196.975 500.614 197.251C500.883 197.512 501.091 197.829 501.223 198.18C501.354 198.531 501.405 198.907 501.372 199.281C501.316 200.004 501.133 200.712 500.83 201.371C500.83 201.371 497.805 210.45 510.503 205.796C510.503 205.796 515.627 208.563 515.782 204.199C515.792 203.725 515.719 203.254 515.566 202.805C515.294 201.626 515.398 200.391 515.864 199.274C515.864 199.274 517.028 196.568 514.232 190.425C513.504 188.701 513.463 186.765 514.117 185.012C514.384 184.265 514.572 183.492 514.679 182.705C515.356 177.131 516.412 157.308 495.355 159.216C495.388 159.182 482.603 155.603 479.665 172.808Z" fill="#313031"/>
<path d="M506.785 185.66C507.356 183.119 506.352 180.73 504.543 180.324C502.734 179.917 500.804 181.648 500.233 184.189C499.662 186.73 500.666 189.119 502.475 189.525C504.284 189.931 506.214 188.201 506.785 185.66Z" fill="#F9B499"/>
<path d="M486.224 199.206H486.183C483.408 197.589 481.113 194.579 479.699 190.743C479.868 190.506 481.052 188.963 482.047 190.925C482.047 190.925 483.489 189.491 483.977 191.832C483.977 191.832 485.587 191.297 485.249 194.322C485.249 194.328 486.955 194.376 486.224 199.206Z" fill="#F7A48B"/>
<path d="M481.878 191.325C481.878 191.325 481.059 189.227 480.01 191.088C480.01 191.088 474.771 199.24 476.626 205.065C476.626 205.065 477.208 212.169 475.225 217.757C475.225 217.757 463.407 245.576 460.483 256.712C460.05 258.313 459.894 259.976 460.022 261.63C460.252 264.221 461.261 267.482 464.862 267.827C464.862 267.827 471.969 269.925 475.11 255.372L483.848 216.133C483.848 216.133 486.961 209.909 485.547 204.801C485.371 204.183 485.336 203.533 485.445 202.9C485.906 200.437 486.853 194.308 484.897 194.592C484.897 194.592 485.364 191.791 483.733 192.143C483.74 192.136 483.625 190.154 481.878 191.325Z" fill="#F9B499"/>
<path d="M478.616 199.125C479.176 196.735 480.036 194.426 481.174 192.251C480.903 193.448 480.548 194.623 480.112 195.769C479.69 196.921 479.19 198.042 478.616 199.125Z" fill="#F7A48B"/>
<path d="M480.572 199.937C481.191 197.619 482.1 195.389 483.279 193.3C482.989 194.454 482.611 195.585 482.149 196.683C481.705 197.805 481.177 198.893 480.572 199.937V199.937Z" fill="#F7A48B"/>
<path d="M482.603 201.222C482.778 200.243 483.039 199.281 483.381 198.347C483.702 197.411 484.105 196.506 484.586 195.641C484.41 196.62 484.15 197.582 483.807 198.516C483.484 199.451 483.081 200.356 482.603 201.222V201.222Z" fill="#F7A48B"/>
<path d="M532.602 225.679C532.602 225.679 539.256 260.365 535.601 266.637C535.601 266.637 532.751 271.541 524.988 268.118L504.452 259.452C504.452 259.452 499.659 258.538 497.947 258.308C497.947 258.308 490.502 257.97 491.666 254.087C491.286 253.678 491.048 253.158 490.987 252.604C490.927 252.049 491.046 251.49 491.327 251.009C491.327 251.009 489.845 248.979 491.781 248.499C491.781 248.499 490.502 246.997 491.49 246.002C491.721 245.784 492.011 245.639 492.324 245.585C492.637 245.531 492.959 245.57 493.25 245.698L500.201 248.289C500.123 247.656 499.882 247.055 499.503 246.543C499.123 246.031 498.618 245.625 498.035 245.366C497.623 245.158 497.305 244.799 497.148 244.365C497.071 244.134 497.047 243.889 497.081 243.648C497.103 243.54 497.149 243.438 497.215 243.35C497.282 243.262 497.367 243.189 497.465 243.138C497.563 243.087 497.671 243.058 497.781 243.054C497.891 243.05 498.001 243.07 498.103 243.113C499.917 243.837 505.237 246.395 506.611 251.793C506.658 251.962 506.752 252.115 506.881 252.235C507.01 252.354 507.169 252.435 507.342 252.47L525.57 256.441L521.563 236.334C521.563 236.334 527.485 233.513 532.602 225.679Z" fill="#F9B499"/>
<path d="M491.876 254.087C492.747 254.057 493.617 254.153 494.461 254.371C495.311 254.564 496.127 254.881 496.884 255.311C496.013 255.344 495.142 255.248 494.299 255.027C493.448 254.838 492.631 254.52 491.876 254.087V254.087Z" fill="#F7A48B"/>
<path d="M491.402 250.954C492.271 250.925 493.139 251.021 493.981 251.239C494.832 251.431 495.651 251.748 496.411 252.179C494.663 252.216 492.936 251.793 491.402 250.954V250.954Z" fill="#F7A48B"/>
<path d="M491.781 248.289C492.652 248.259 493.523 248.355 494.366 248.573C495.216 248.766 496.033 249.083 496.79 249.513C495.918 249.546 495.047 249.45 494.204 249.229C493.354 249.04 492.537 248.723 491.781 248.289V248.289Z" fill="#F7A48B"/>
<path d="M348.151 234.893L345.917 232.796L317.699 217.77L293.169 262.631L294.618 262.598L318.294 219.198L348.151 234.893Z" fill="#8A70D6"/>
<path opacity="0.6" d="M348.151 234.893L345.917 232.796L317.699 217.77L293.169 262.631L294.618 262.598L318.294 219.198L348.151 234.893Z" fill="white"/>
<path d="M301.366 239.379L304.371 235.935C304.371 235.935 298.557 232.85 290.739 223.649C290.739 223.649 276.749 244.027 284.37 249.879C284.37 249.879 287.436 253.715 321.34 261.197C321.943 261.327 322.53 261.527 323.086 261.793L334.938 267.442L334.553 268.226C334.553 268.226 339.142 269.397 338.553 265.588C338.553 265.588 341.26 265.588 340.895 262.469C340.895 262.469 343.237 261.88 342.066 258.66C342.066 258.66 345.091 256.712 342.066 254.466C342.066 254.466 339.236 252.612 334.065 252.436C334.304 252.07 334.612 251.754 334.974 251.508C335.335 251.262 335.742 251.09 336.17 251.002C336.893 250.806 337.654 250.806 338.377 251.002C339.297 251.239 340.827 251.32 341.084 249.27C341.102 249.107 341.061 248.944 340.967 248.809C340.874 248.675 340.735 248.579 340.577 248.539C338.986 248.093 334.18 246.963 330.566 248.411L325.097 250.751C325.097 250.751 323.54 251.922 320.704 250.359L301.752 241.158C301.592 241.084 301.452 240.973 301.342 240.836C301.231 240.698 301.155 240.536 301.117 240.364C301.08 240.192 301.083 240.013 301.126 239.842C301.169 239.671 301.251 239.513 301.366 239.379Z" fill="#F9B499"/>
<path d="M345.558 193.178C345.558 193.178 347.907 200.255 343.968 202.284C343.968 202.284 335.615 207.697 328.853 192.346H330.167C330.386 192.391 330.614 192.361 330.815 192.261C331.015 192.16 331.175 191.994 331.27 191.791L333.612 186.744L334.864 183.24L345.558 193.178Z" fill="#F9B499"/>
<path d="M345.558 193.178C345.973 194.472 346.17 195.825 346.14 197.183C346.14 197.183 337.287 197.765 334.864 183.24L345.558 193.178Z" fill="#F7A48B"/>
<path d="M346.608 194.267C353.422 194.267 358.947 186.156 358.947 176.15C358.947 166.144 353.422 158.032 346.608 158.032C339.793 158.032 334.268 166.144 334.268 176.15C334.268 186.156 339.793 194.267 346.608 194.267Z" fill="#F9B499"/>
<path d="M367.211 170.535C367.256 170.466 367.279 170.386 367.278 170.304C367.278 170.222 367.252 170.142 367.206 170.075C367.159 170.007 367.094 169.955 367.018 169.925C366.941 169.895 366.858 169.888 366.778 169.905C365.499 170.19 363.455 170.149 363.888 166.82C363.888 166.82 364.659 161.408 361.857 161.117C361.857 161.117 362.324 157.105 357.694 156.334C357.694 156.334 353.065 150.171 348.442 152.478C347.542 152.233 346.582 152.335 345.754 152.763C344.925 153.192 344.288 153.916 343.968 154.792C343.968 154.792 332.705 153.1 329.463 162.964L328.542 173.45C328.048 175.868 328.434 178.383 329.632 180.541C329.632 180.541 333.179 185.168 331.175 187.482C331.175 187.482 335.805 189.024 336.732 179.769L339.507 175.764C339.932 174.041 340.778 172.451 341.971 171.137C342.782 170.046 343.341 168.789 343.608 167.457C343.875 166.124 343.843 164.75 343.514 163.431C343.514 163.431 348.455 164.195 348.455 158.959C348.716 159.015 348.961 159.127 349.175 159.286C349.389 159.445 349.566 159.648 349.694 159.882C349.822 160.115 349.899 160.374 349.919 160.639C349.939 160.905 349.901 161.172 349.809 161.422C349.809 161.422 349.193 170.061 358.29 169.29C358.29 169.29 360.321 168.518 361.674 170.825C361.729 170.825 364.829 174.161 367.211 170.535Z" fill="#313031"/>
<path d="M338.166 179.725C339.666 179.108 340.12 176.756 339.18 174.472C338.239 172.188 336.261 170.837 334.76 171.454C333.26 172.071 332.806 174.423 333.747 176.707C334.687 178.991 336.666 180.342 338.166 179.725Z" fill="#F9B499"/>
</svg>
