<svg width="297" height="53" viewBox="0 0 297 53" fill="none" xmlns="http://www.w3.org/2000/svg">
<path d="M46.6053 4L68.6205 27.1513H24.59L46.6053 4Z" fill="#E9E3FE"/>
<path d="M46.6053 50L68.6205 26.8487H24.59L46.6053 50Z" fill="#E9E3FE"/>
<path d="M25.4211 4L47.4363 27.1513H3.40578L25.4211 4Z" fill="#8A70D6"/>
<path d="M25.4211 50L47.4363 26.8487H3.40578L25.4211 50Z" fill="#8A70D6"/>
<path d="M109.68 14.57V39H104.78V28.605H94.315V39H89.415V14.57H94.315V24.615H104.78V14.57H109.68ZM116.988 17.3C116.125 17.3 115.401 17.0317 114.818 16.495C114.258 15.935 113.978 15.2467 113.978 14.43C113.978 13.6133 114.258 12.9367 114.818 12.4C115.401 11.84 116.125 11.56 116.988 11.56C117.851 11.56 118.563 11.84 119.123 12.4C119.706 12.9367 119.998 13.6133 119.998 14.43C119.998 15.2467 119.706 15.935 119.123 16.495C118.563 17.0317 117.851 17.3 116.988 17.3ZM119.403 19.61V39H114.503V19.61H119.403ZM131.839 19.295C133.286 19.295 134.557 19.5867 135.654 20.17C136.751 20.73 137.614 21.465 138.244 22.375V19.61H143.179V39.14C143.179 40.9367 142.817 42.535 142.094 43.935C141.371 45.3583 140.286 46.4783 138.839 47.295C137.392 48.135 135.642 48.555 133.589 48.555C130.836 48.555 128.572 47.9133 126.799 46.63C125.049 45.3467 124.057 43.5967 123.824 41.38H128.689C128.946 42.2667 129.494 42.9667 130.334 43.48C131.197 44.0167 132.236 44.285 133.449 44.285C134.872 44.285 136.027 43.8533 136.914 42.99C137.801 42.15 138.244 40.8667 138.244 39.14V36.13C137.614 37.04 136.739 37.7983 135.619 38.405C134.522 39.0117 133.262 39.315 131.839 39.315C130.206 39.315 128.712 38.895 127.359 38.055C126.006 37.215 124.932 36.0367 124.139 34.52C123.369 32.98 122.984 31.2183 122.984 29.235C122.984 27.275 123.369 25.5367 124.139 24.02C124.932 22.5033 125.994 21.3367 127.324 20.52C128.677 19.7033 130.182 19.295 131.839 19.295ZM138.244 29.305C138.244 28.115 138.011 27.1 137.544 26.26C137.077 25.3967 136.447 24.7433 135.654 24.3C134.861 23.8333 134.009 23.6 133.099 23.6C132.189 23.6 131.349 23.8217 130.579 24.265C129.809 24.7083 129.179 25.3617 128.689 26.225C128.222 27.065 127.989 28.0683 127.989 29.235C127.989 30.4017 128.222 31.4283 128.689 32.315C129.179 33.1783 129.809 33.8433 130.579 34.31C131.372 34.7767 132.212 35.01 133.099 35.01C134.009 35.01 134.861 34.7883 135.654 34.345C136.447 33.8783 137.077 33.225 137.544 32.385C138.011 31.5217 138.244 30.495 138.244 29.305ZM158.885 19.33C160.355 19.33 161.661 19.6567 162.805 20.31C163.948 20.94 164.835 21.885 165.465 23.145C166.118 24.3817 166.445 25.875 166.445 27.625V39H161.545V28.29C161.545 26.75 161.16 25.5717 160.39 24.755C159.62 23.915 158.57 23.495 157.24 23.495C155.886 23.495 154.813 23.915 154.02 24.755C153.25 25.5717 152.865 26.75 152.865 28.29V39H147.965V13.1H152.865V22.025C153.495 21.185 154.335 20.5317 155.385 20.065C156.435 19.575 157.601 19.33 158.885 19.33ZM187.879 39.245C186.176 39.245 184.636 38.9533 183.259 38.37C181.906 37.7867 180.833 36.9467 180.039 35.85C179.246 34.7533 178.838 33.4583 178.814 31.965H184.064C184.134 32.9683 184.484 33.7617 185.114 34.345C185.768 34.9283 186.654 35.22 187.774 35.22C188.918 35.22 189.816 34.9517 190.469 34.415C191.123 33.855 191.449 33.1317 191.449 32.245C191.449 31.5217 191.228 30.9267 190.784 30.46C190.341 29.9933 189.781 29.6317 189.104 29.375C188.451 29.095 187.541 28.7917 186.374 28.465C184.788 27.9983 183.493 27.5433 182.489 27.1C181.509 26.6333 180.658 25.945 179.934 25.035C179.234 24.1017 178.884 22.865 178.884 21.325C178.884 19.8783 179.246 18.6183 179.969 17.545C180.693 16.4717 181.708 15.655 183.014 15.095C184.321 14.5117 185.814 14.22 187.494 14.22C190.014 14.22 192.056 14.8383 193.619 16.075C195.206 17.2883 196.081 18.9917 196.244 21.185H190.854C190.808 20.345 190.446 19.6567 189.769 19.12C189.116 18.56 188.241 18.28 187.144 18.28C186.188 18.28 185.418 18.525 184.834 19.015C184.274 19.505 183.994 20.2167 183.994 21.15C183.994 21.8033 184.204 22.3517 184.624 22.795C185.068 23.215 185.604 23.565 186.234 23.845C186.888 24.1017 187.798 24.405 188.964 24.755C190.551 25.2217 191.846 25.6883 192.849 26.155C193.853 26.6217 194.716 27.3217 195.439 28.255C196.163 29.1883 196.524 30.4133 196.524 31.93C196.524 33.2367 196.186 34.45 195.509 35.57C194.833 36.69 193.841 37.5883 192.534 38.265C191.228 38.9183 189.676 39.245 187.879 39.245ZM199.512 29.305C199.512 27.2983 199.921 25.5483 200.737 24.055C201.554 22.5383 202.686 21.3717 204.132 20.555C205.579 19.715 207.236 19.295 209.102 19.295C211.506 19.295 213.489 19.9017 215.052 21.115C216.639 22.305 217.701 23.985 218.237 26.155H212.952C212.672 25.315 212.194 24.6617 211.517 24.195C210.864 23.705 210.047 23.46 209.067 23.46C207.667 23.46 206.559 23.9733 205.742 25C204.926 26.0033 204.517 27.4383 204.517 29.305C204.517 31.1483 204.926 32.5833 205.742 33.61C206.559 34.6133 207.667 35.115 209.067 35.115C211.051 35.115 212.346 34.2283 212.952 32.455H218.237C217.701 34.555 216.639 36.2233 215.052 37.46C213.466 38.6967 211.482 39.315 209.102 39.315C207.236 39.315 205.579 38.9067 204.132 38.09C202.686 37.25 201.554 36.0833 200.737 34.59C199.921 33.0733 199.512 31.3117 199.512 29.305ZM232.747 19.33C234.217 19.33 235.524 19.6567 236.667 20.31C237.81 20.94 238.697 21.885 239.327 23.145C239.98 24.3817 240.307 25.875 240.307 27.625V39H235.407V28.29C235.407 26.75 235.022 25.5717 234.252 24.755C233.482 23.915 232.432 23.495 231.102 23.495C229.749 23.495 228.675 23.915 227.882 24.755C227.112 25.5717 226.727 26.75 226.727 28.29V39H221.827V13.1H226.727V22.025C227.357 21.185 228.197 20.5317 229.247 20.065C230.297 19.575 231.464 19.33 232.747 19.33ZM253.577 39.315C251.71 39.315 250.03 38.9067 248.537 38.09C247.043 37.25 245.865 36.0717 245.002 34.555C244.162 33.0383 243.742 31.2883 243.742 29.305C243.742 27.3217 244.173 25.5717 245.037 24.055C245.923 22.5383 247.125 21.3717 248.642 20.555C250.158 19.715 251.85 19.295 253.717 19.295C255.583 19.295 257.275 19.715 258.792 20.555C260.308 21.3717 261.498 22.5383 262.362 24.055C263.248 25.5717 263.692 27.3217 263.692 29.305C263.692 31.2883 263.237 33.0383 262.327 34.555C261.44 36.0717 260.227 37.25 258.687 38.09C257.17 38.9067 255.467 39.315 253.577 39.315ZM253.577 35.045C254.463 35.045 255.292 34.835 256.062 34.415C256.855 33.9717 257.485 33.3183 257.952 32.455C258.418 31.5917 258.652 30.5417 258.652 29.305C258.652 27.4617 258.162 26.05 257.182 25.07C256.225 24.0667 255.047 23.565 253.647 23.565C252.247 23.565 251.068 24.0667 250.112 25.07C249.178 26.05 248.712 27.4617 248.712 29.305C248.712 31.1483 249.167 32.5717 250.077 33.575C251.01 34.555 252.177 35.045 253.577 35.045ZM275.896 39.315C274.029 39.315 272.349 38.9067 270.856 38.09C269.363 37.25 268.184 36.0717 267.321 34.555C266.481 33.0383 266.061 31.2883 266.061 29.305C266.061 27.3217 266.493 25.5717 267.356 24.055C268.243 22.5383 269.444 21.3717 270.961 20.555C272.478 19.715 274.169 19.295 276.036 19.295C277.903 19.295 279.594 19.715 281.111 20.555C282.628 21.3717 283.818 22.5383 284.681 24.055C285.568 25.5717 286.011 27.3217 286.011 29.305C286.011 31.2883 285.556 33.0383 284.646 34.555C283.759 36.0717 282.546 37.25 281.006 38.09C279.489 38.9067 277.786 39.315 275.896 39.315ZM275.896 35.045C276.783 35.045 277.611 34.835 278.381 34.415C279.174 33.9717 279.804 33.3183 280.271 32.455C280.738 31.5917 280.971 30.5417 280.971 29.305C280.971 27.4617 280.481 26.05 279.501 25.07C278.544 24.0667 277.366 23.565 275.966 23.565C274.566 23.565 273.388 24.0667 272.431 25.07C271.498 26.05 271.031 27.4617 271.031 29.305C271.031 31.1483 271.486 32.5717 272.396 33.575C273.329 34.555 274.496 35.045 275.896 35.045ZM294.505 13.1V39H289.605V13.1H294.505Z" fill="#434041"/>
</svg>
